<svg id="Capa_1" enable-background="new 0 0 512 512" height="512" viewBox="0 0 512 512" width="512" xmlns="http://www.w3.org/2000/svg"><g><g><path d="m187 151h-47l-140 130v30l10 15-10 15v75c0 8.284 6.716 15 15 15h172c8.284 0 15-6.716 15-15v-250c0-8.284-6.716-15-15-15z" fill="#ff6378"/><path d="m89.722 151c-20.967 0-39.817 11.649-49.193 30.403l-38.945 77.889c-1.042 2.083-1.584 4.379-1.584 6.708v15h125c8.284 0 15-6.716 15-15v-115z" fill="#7dd5f4"/><g><g><path d="m497 331h-295c-8.284 0-15-6.716-15-15v-260c0-8.284 6.716-15 15-15h295c8.284 0 15 6.716 15 15v260c0 8.284-6.716 15-15 15z" fill="#f4f4f6"/></g><g><path d="m497 41h-150v290h150c8.284 0 15-6.716 15-15v-260c0-8.284-6.716-15-15-15z" fill="#e7f1f9"/></g><path d="m187 316v115h310c8.284 0 15-6.716 15-15v-100z" fill="#e20059"/><path d="m347 431h150c8.284 0 15-6.716 15-15v-100h-165z" fill="#c1126b"/></g><path d="m30 341c8.284 0 15-6.716 15-15s-6.716-15-15-15h-30v30z" fill="#ffdd54"/><g><path d="m407 471c-30.327 0-55-24.673-55-55s24.673-55 55-55 55 24.673 55 55-24.673 55-55 55z" fill="#08475e"/><circle cx="407" cy="416" fill="#e7f1f9" r="25"/></g><g><path d="m105 471c-30.327 0-55-24.673-55-55s24.673-55 55-55 55 24.673 55 55-24.673 55-55 55z" fill="#0a617d"/><circle cx="105" cy="416" fill="#f4f4f6" r="25"/></g></g><g><g><g><path d="m347 281c-19.419 0-33.347-2.634-43.832-8.291-10.271-5.541-22.514-17.042-22.514-40.363 0-36.583 29.763-66.346 66.346-66.346s66.346 29.763 66.346 66.346c0 23.321-12.244 34.822-22.514 40.363-10.485 5.657-24.413 8.291-43.832 8.291z" fill="#c18678"/><path d="m277 193c-20.677 0-37.5-16.823-37.5-37.5s16.823-37.5 37.5-37.5 37.5 16.823 37.5 37.5-16.823 37.5-37.5 37.5z" fill="#a55c4f"/><path d="m347 166c-20.677 0-37.5-16.823-37.5-37.5s16.823-37.5 37.5-37.5 37.5 16.823 37.5 37.5-16.823 37.5-37.5 37.5z" fill="#a55c4f"/><path d="m379.5 155.5c0-20.677 16.823-37.5 37.5-37.5s37.5 16.823 37.5 37.5-16.823 37.5-37.5 37.5-37.5-16.823-37.5-37.5z" fill="#784033"/></g><g><path d="m390.832 272.709c10.271-5.541 22.514-17.042 22.514-40.363 0-36.583-29.763-66.346-66.346-66.346v115c19.419 0 33.347-2.634 43.832-8.291z" fill="#a55c4f"/><path d="m384.5 128.5c0-20.677-16.823-37.5-37.5-37.5v75c20.677 0 37.5-16.823 37.5-37.5z" fill="#784033"/></g></g></g></g></svg>