<?xml version="1.0" encoding="iso-8859-1"?>
<!-- Generator: Adobe Illustrator 19.0.0, SVG Export Plug-In . SVG Version: 6.00 Build 0)  -->
<svg version="1.1" id="Capa_1" xmlns="http://www.w3.org/2000/svg" xmlns:xlink="http://www.w3.org/1999/xlink" x="0px" y="0px"
	 viewBox="0 0 512 512" style="enable-background:new 0 0 512 512;" xml:space="preserve">
<path style="fill:#75E0F1;" d="M512,320.01c0-83.813-71.775-152-160-152s-160,68.187-160,152s71.775,152,160,152
	c11.457,0,22.894-1.163,34.046-3.46l65.628,42.189c3.052,1.961,7.154,1.585,9.799-0.895c2.255-2.114,3.094-5.431,2.117-8.364
	l-19.136-57.407C486.872,415.539,512,369.612,512,320.01z"/>
<path style="fill:#3DC9D9;" d="M512,320.01c0-34.791-12.376-66.882-33.153-92.528C489.814,248.074,496,271.355,496,296.01
	c0,83.947-71.635,152-160,152c-51.468,0-97.254-23.092-126.522-58.959C235.995,438.255,289.925,472.01,352,472.01
	c11.457,0,22.894-1.163,34.046-3.46l65.628,42.189c3.052,1.961,7.154,1.585,9.799-0.895c2.255-2.114,3.094-5.431,2.117-8.364
	l-19.136-57.407C486.872,415.539,512,369.612,512,320.01z"/>
<g>
	<path style="fill:#FFFFFF;" d="M354.182,314.192c-31.079,0-56.364,25.285-56.364,56.364c0,28.462,21.071,45.455,56.364,45.455
		s56.364-16.992,56.364-45.455C410.545,339.477,385.26,314.192,354.182,314.192z"/>
	<path style="fill:#FFFFFF;" d="M323.273,308.738c13.034,0,23.636-10.603,23.636-23.636c0-11.861-9.208-29.091-23.636-29.091
		c-14.428,0-23.636,17.23-23.636,29.091C299.636,298.134,310.239,308.738,323.273,308.738z"/>
	<path style="fill:#FFFFFF;" d="M385.091,308.738c13.034,0,23.636-10.603,23.636-23.636c0-11.861-9.208-29.091-23.636-29.091
		c-14.428,0-23.636,17.23-23.636,29.091C361.455,298.134,372.057,308.738,385.091,308.738z"/>
	<path style="fill:#FFFFFF;" d="M439.636,296.01c-14.428,0-23.636,17.23-23.636,29.091c0,13.033,10.603,23.636,23.636,23.636
		c13.034,0,23.636-10.603,23.636-23.636C463.273,313.24,454.065,296.01,439.636,296.01z"/>
	<path style="fill:#FFFFFF;" d="M296,325.101c0-11.861-9.208-29.091-23.636-29.091c-14.428,0-23.636,17.23-23.636,29.091
		c0,13.033,10.603,23.636,23.636,23.636C285.397,348.738,296,338.134,296,325.101z"/>
</g>
<path style="fill:#AED45B;" d="M160,0.01c-88.225,0-160,68.187-160,152c0,49.602,25.128,95.529,67.546,124.063L48.41,333.481
	c-0.977,2.933-0.138,6.249,2.117,8.364c2.645,2.48,6.747,2.856,9.799,0.895l65.627-42.189c11.154,2.297,22.59,3.46,34.047,3.46
	c88.225,0,160-68.187,160-152S248.225,0.01,160,0.01z"/>
<path style="fill:#9AC932;" d="M242.413,21.771C270.612,49.175,288,86.661,288,128.01c0,83.947-71.635,152-160,152
	c-30.134,0-58.318-7.919-82.383-21.678c6.671,6.462,13.997,12.406,21.928,17.741L48.41,333.481
	c-0.977,2.933-0.137,6.249,2.117,8.364c2.645,2.48,6.747,2.856,9.799,0.895l65.627-42.189c11.154,2.297,22.59,3.46,34.047,3.46
	c88.225,0,160-68.187,160-152C320,96.815,288.868,48.401,242.413,21.771z"/>
<path style="fill:#FFFFFF;" d="M232,120.01h-40v-40c0-4.418-3.582-8-8-8h-48c-4.418,0-8,3.582-8,8v40H88c-4.418,0-8,3.582-8,8v48
	c0,4.418,3.582,8,8,8h40v40c0,4.418,3.582,8,8,8h48c4.418,0,8-3.582,8-8v-40h40c4.418,0,8-3.582,8-8v-48
	C240,123.592,236.418,120.01,232,120.01z"/>
<g>
</g>
<g>
</g>
<g>
</g>
<g>
</g>
<g>
</g>
<g>
</g>
<g>
</g>
<g>
</g>
<g>
</g>
<g>
</g>
<g>
</g>
<g>
</g>
<g>
</g>
<g>
</g>
<g>
</g>
</svg>
