<svg height="512" viewBox="0 0 64 64" width="512" xmlns="http://www.w3.org/2000/svg"><g id="flat"><path d="m25 13v-2a4.01 4.01 0 0 0 -4.015-4.014 4.009 4.009 0 0 0 -3.985 4.014v6a7.651 7.651 0 0 0 2 5z" fill="#ad6327"/><path d="m21 20a1 1 0 0 1 -1-1v-8a1 1 0 0 1 2 0v8a1 1 0 0 1 -1 1z" fill="#f98c96"/><path d="m39.009 13-.009-2a3.985 3.985 0 0 1 4-4h.005a4.01 4.01 0 0 1 3.995 4v6a7.666 7.666 0 0 1 -1.991 5z" fill="#ad6327"/><path d="m43 20a1 1 0 0 1 -1-1v-8a1 1 0 0 1 2 0v8a1 1 0 0 1 -1 1z" fill="#f98c96"/><path d="m45 22-6-9h-14.043l-5.957 9v4l-1 6a2.843 2.843 0 0 0 2 3l4 2h16l4-2a2.843 2.843 0 0 0 2-3l-1-6z" fill="#d3843d"/><path d="m39 30c-5-2-4.525-5-7-5s-2 3-7 5-3 7 1 7h3l3-4 3 4h3c4 0 6-5 1-7z" fill="#ffd782"/><path d="m40 26a2 2 0 1 1 2-2 2 2 0 0 1 -2 2z" fill="#394d5c"/><path d="m24 26a2 2 0 1 1 2-2 2 2 0 0 1 -2 2z" fill="#394d5c"/><circle cx="32" cy="27" fill="#394d5c" r="2"/><path d="m34.445 22.721a4.628 4.628 0 0 0 -4.89 0l-1.11-1.664a6.61 6.61 0 0 1 7.11 0z" fill="#ad6327"/><path d="m26 32h2v2h-2z" fill="#f98c96"/><path d="m36 32h2v2h-2z" fill="#f98c96"/><path d="m13 57h8v4h-8z" fill="#7fcac9"/><path d="m43 57h8v4h-8z" fill="#7fcac9"/><path d="m51 57h-38c-2.017 0-3.75-1-4-3l-2-13h50l-2 13c-.25 2-1.983 3-4 3z" fill="#2d75bb"/><rect fill="#7fcac9" height="4" rx="2" width="58" x="3" y="37"/><path d="m15 37h8a0 0 0 0 1 0 0v4a4 4 0 0 1 -4 4 4 4 0 0 1 -4-4v-4a0 0 0 0 1 0 0z" fill="#f4f4e6"/><path d="m39 37h8a0 0 0 0 1 0 0v4a4 4 0 0 1 -4 4 4 4 0 0 1 -4-4v-4a0 0 0 0 1 0 0z" fill="#e0e0dc"/><path d="m39 37v8a2 2 0 0 1 -4 0 2 2 0 0 0 -4 0v4a2 2 0 0 1 -4 0v-12z" fill="#f4f4e6"/><g fill="#87cee9"><path d="m34 3a3 3 0 0 0 -3 3 2.822 2.822 0 0 0 .03.293 2 2 0 1 0 .949 1.907 3 3 0 1 0 2.021-5.2z"/><path d="m7 19a3 3 0 0 0 3 3 2.822 2.822 0 0 0 .293-.03 2 2 0 1 0 1.911-.949 3 3 0 1 0 -5.204-2.021z"/><circle cx="9" cy="31" r="2"/><circle cx="53" cy="29" r="3"/><circle cx="57" cy="21" r="2"/></g><path d="m12 52h2v2h-2z" fill="#f4f4e6"/><path d="m16 52h2v2h-2z" fill="#f4f4e6"/></g></svg>