<svg id="Capa_1" enable-background="new 0 0 512 512" height="512" viewBox="0 0 512 512" width="512" xmlns="http://www.w3.org/2000/svg"><g><path d="m361.007 172.204 18.098-3.098 29.375-29.375 16.718-31.718c-6.597-7.537-13.674-14.614-21.211-21.211l-32.031 17.031-33.125 33.125.964 14.036c7.858 6.283 14.928 13.353 21.212 21.21z" fill="#ffb3b3"/><path d="m150.993 339.796-15.286.286-35.312 35.312-13.593 28.593c6.597 7.537 13.674 14.614 21.211 21.211l28.593-13.593 31.875-31.875 3.723-18.723c-7.857-6.284-14.927-13.354-21.211-21.211z" fill="#ffd5cc"/><path d="m425.199 403.988-12.343-27.343-35.313-35.313-16.535-1.535c-6.284 7.857-13.354 14.927-21.211 21.211l16.535 31.535 23.438 23.438 24.219 9.219c7.535-6.599 14.612-13.676 21.21-21.212z" fill="#ffb3b3"/><path d="m172.204 150.993-14.036-29.036-32.499-32.499-17.656-2.656c-7.537 6.597-14.614 13.674-21.211 21.211l16.719 31.719 32.499 32.499 14.974-.026c6.283-7.858 13.353-14.928 21.21-21.212z" fill="#ffd5cc"/><path d="m391 256c0 31.813-11.517 60.699-29.993 83.796l64.191 64.191c34.646-39.576 55.802-91.255 55.802-147.987s-21.156-108.411-55.801-147.988l-64.191 64.191c18.475 23.098 29.992 51.984 29.992 83.797z" fill="#f96"/><path d="m121 256c0-31.813 11.517-60.699 29.993-83.796l-64.191-64.191c-34.646 39.576-55.802 91.255-55.802 147.987s21.156 108.411 55.801 147.988l64.191-64.191c-18.475-23.098-29.992-51.984-29.992-83.797z" fill="#9cdd05"/><g><path d="m308.488 205.567h30.009v29.998h-30.009z" fill="#38211a" transform="matrix(.643 -.766 .766 .643 -53.386 326.676)"/><g fill="#5b362a"><path d="m173.509 205.561h29.998v30.009h-29.998z" transform="matrix(.766 -.642 .642 .766 -97.65 172.624)"/><path d="m271 211v-30h-15-15v30h15z"/><path d="m314.184 272.538c-3.442-1.538-10.503-11.851-14.297-17.388-4.292-6.255-8.438-12.1-12.202-15.908-8.423-8.538-20.056-12.805-31.685-12.806-11.633-.002-23.262 4.265-31.67 12.792-3.823 3.867-7.969 9.727-12.231 15.967-3.779 5.508-10.811 15.791-14.253 17.329-6.299 2.797-16.846 10.224-16.846 28.476 0 9.961 3.062 17.856 9.111 23.467 10.869 10.093 26.455 8.95 44.517 7.573 6.606-.483 13.989-.725 21.372-.725s14.766.242 21.372.725c16.313 1.232 33.27 2.877 44.517-7.573 6.05-5.61 9.111-13.506 9.111-23.467 0-18.237-10.532-25.649-16.816-28.462z"/></g><g fill="#38211a"><path d="m256 181h15v30h-15z"/><path d="m321.889 324.467c6.05-5.61 9.111-13.506 9.111-23.467 0-18.237-10.532-25.649-16.816-28.462-3.442-1.538-10.503-11.851-14.297-17.388-4.292-6.255-8.438-12.1-12.202-15.908-8.423-8.538-20.056-12.805-31.685-12.806v104.879c7.383 0 14.766.242 21.372.725 16.313 1.232 33.27 2.877 44.517-7.573z"/></g></g><path d="m256 31c-56.732 0-108.411 21.156-147.988 55.801l64.191 64.191c23.098-18.475 51.984-29.992 83.797-29.992s60.699 11.517 83.796 29.993l64.191-64.191c-39.576-34.646-91.255-55.802-147.987-55.802z" fill="#80d4ff"/><path d="m403.988 86.801c-39.577-34.645-91.256-55.801-147.988-55.801v90c31.813 0 60.699 11.517 83.796 29.993z" fill="#66b3ff"/><path d="m339.796 361.007c-23.097 18.476-51.983 29.993-83.796 29.993s-60.699-11.517-83.796-29.993l-64.191 64.191c39.576 34.646 91.255 55.802 147.987 55.802s108.411-21.156 147.988-55.801z" fill="#ff6c6c"/><path d="m339.796 361.007c-23.097 18.476-51.983 29.993-83.796 29.993v90c56.732 0 108.411-21.156 147.988-55.801z" fill="#ff435b"/><g fill="#ffd5cc"><path d="m256 91c24.814 0 45-20.186 45-45s-20.186-46-45-46-45 21.186-45 46 20.186 45 45 45z"/><path d="m256 421c-24.814 0-45 20.186-45 45s20.186 46 45 46 45-21.186 45-46-20.186-45-45-45z"/></g><path d="m301 46c0-24.814-20.186-46-45-46v91c24.814 0 45-20.186 45-45z" fill="#ffb3b3"/><path d="m301 466c0-24.814-20.186-45-45-45v91c24.814 0 45-21.186 45-46z" fill="#ffb3b3"/><path d="m46 301c-24.814 0-46-20.186-46-45s21.186-45 46-45 45 20.186 45 45-20.186 45-45 45z" fill="#c86e59"/><path d="m466 301c-24.814 0-45-20.186-45-45s20.186-45 45-45 46 20.186 46 45-21.186 45-46 45z" fill="#a34f3e"/></g></svg>