<svg id="Capa_1" enable-background="new 0 0 512 512" height="512" viewBox="0 0 512 512" width="512" xmlns="http://www.w3.org/2000/svg"><g><path d="m1 162.98v289.02c0 8.284 6.716 15 15 15h480c8.284 0 15-6.716 15-15v-289.02z" fill="#ffdd54"/><path d="m256 162.98v304.02h240c8.284 0 15-6.716 15-15v-289.02z" fill="#ffa07a"/><path d="m456 302h-200c-8.284 0-15 6.716-15 15v135c0 8.284 6.716 15 15 15h200c8.284 0 15-6.716 15-15v-135c0-8.284-6.716-15-15-15z" fill="#f4f4f6"/><g><path d="m456 302h-200v165h200c8.284 0 15-6.716 15-15v-135c0-8.284-6.716-15-15-15z" fill="#e7f1f9"/></g><g><path d="m1 452v45c0 8.284 6.716 15 15 15h45l65-20 65 20h305c8.284 0 15-6.716 15-15v-45z" fill="#0a617d"/></g><g><path d="m256 452v60h240c8.284 0 15-6.716 15-15v-45z" fill="#08475e"/></g><g><path d="m447.471 226.998c-18.995-.157-36.013-8.763-47.471-22.236-11.565 13.597-28.792 22.238-48 22.238s-36.435-8.641-48-22.238c-11.565 13.597-28.792 22.238-48 22.238s-36.435-8.641-48-22.238c-11.565 13.597-28.792 22.238-48 22.238s-36.435-8.641-48-22.238c-11.459 13.473-28.476 22.079-47.471 22.236-34.941.289-63.529-29.076-63.529-64.018v-72.98c0-8.284 6.716-15 15-15h480c8.284 0 15 6.716 15 15v72.98c0 34.942-28.588 64.307-63.529 64.018z" fill="#ff6378"/></g><g><path d="m496 75h-240v152c19.208 0 36.435-8.641 48-22.238 11.565 13.597 28.792 22.238 48 22.238s36.435-8.641 48-22.238c11.459 13.473 28.477 22.079 47.471 22.236 34.941.289 63.529-29.076 63.529-64.018v-72.98c0-8.284-6.716-15-15-15z" fill="#e20059"/></g><g><path d="m191 512h-30l-35-20-35 20h-30v-195c0-8.284 6.716-15 15-15h100c8.284 0 15 6.716 15 15z" fill="#f4f4f6"/><path d="m91 332h70v180h-70z" fill="#7dd5f4"/></g><path d="m146 392c-8.284 0-15 6.716-15 15s6.716 15 15 15h30v-30z" fill="#f4f4f6"/><g><g><path d="m346 150c-19.556 0-36.239-12.539-42.43-30h-95.14c-6.191 17.461-22.874 30-42.43 30-24.813 0-45-20.187-45-45 0-11.306 4.299-21.924 11.583-30-7.284-8.076-11.583-18.694-11.583-30 0-24.813 20.187-45 45-45 19.556 0 36.239 12.539 42.43 30h95.141c6.19-17.461 22.873-30 42.429-30 24.813 0 45 20.187 45 45 0 11.306-4.299 21.924-11.583 30 7.284 8.076 11.583 18.694 11.583 30 0 24.813-20.187 45-45 45z" fill="#f4f4f6"/></g></g><g><path d="m391 45c0-24.813-20.187-45-45-45-19.556 0-36.239 12.539-42.43 30h-47.57v90h47.57c6.191 17.461 22.874 30 42.43 30 24.813 0 45-20.187 45-45 0-11.306-4.299-21.924-11.583-30 7.284-8.076 11.583-18.694 11.583-30z" fill="#e7f1f9"/></g><g fill="#6ba7ff"><path d="m404.333 332h36.667v30h-36.667z"/><path d="m337.667 332h36.667v30h-36.667z"/><path d="m337.667 392h36.667v30h-36.667z"/><path d="m271 332h36.667v30h-36.667z"/><path d="m271 392h36.667v30h-36.667z"/><path d="m404.333 392h36.667v30h-36.667z"/></g></g></svg>