<?xml version="1.0" encoding="utf-8"?>
<!-- Generator: Adobe Illustrator 23.0.2, SVG Export Plug-In . SVG Version: 6.00 Build 0)  -->
<svg version="1.1" id="Capa_1" xmlns="http://www.w3.org/2000/svg" xmlns:xlink="http://www.w3.org/1999/xlink" x="0px" y="0px"
	 viewBox="0 0 158 61.2" style="enable-background:new 0 0 158 61.2;" xml:space="preserve">
<style type="text/css">
	.st0{fill:#7C7B7B;}
	.st1{fill:#E6206E;}
	.st2{fill:#8A4E91;}
	.st3{fill:#0881C0;}
	.st4{fill:#00ACCE;}
	.st5{fill:#55B9A1;}
	.st6{fill:#A1CC8C;}
	.st7{fill:#B92A70;}
	.st8{fill:#6F6FA8;}
	.st9{fill:#0097C2;}
	.st10{fill:#AE8261;}
</style>
<g>
	<title>Group 15</title>
	<desc>Created with Sketch.</desc>
	<g>
		<g>
			<path class="st0" d="M72.1,21.7v2H75v0.7h-2.9v2.3h-0.8V21h4.1v0.7H72.1z"/>
			<path class="st0" d="M81.8,22.4v4.4H81v-0.7c-0.3,0.5-0.9,0.7-1.5,0.7c-1.1,0-1.9-0.6-1.9-1.9v-2.5h0.8v2.4
				c0,0.9,0.4,1.3,1.2,1.3c0.8,0,1.3-0.5,1.3-1.4v-2.3H81.8z"/>
			<path class="st0" d="M88.9,24.2v2.5h-0.8v-2.4c0-0.9-0.4-1.3-1.2-1.3c-0.8,0-1.4,0.5-1.4,1.4v2.2h-0.8v-4.4h0.8V23
				c0.3-0.4,0.9-0.7,1.6-0.7C88.2,22.3,88.9,22.9,88.9,24.2z"/>
			<path class="st0" d="M96,20.6v6.1h-0.8V26c-0.4,0.5-0.9,0.7-1.6,0.7c-1.3,0-2.2-0.9-2.2-2.2s0.9-2.2,2.2-2.2
				c0.6,0,1.2,0.2,1.5,0.7v-2.4H96z M95.2,24.5c0-0.9-0.6-1.5-1.5-1.5c-0.8,0-1.5,0.6-1.5,1.5c0,0.9,0.6,1.5,1.5,1.5
				C94.6,26.1,95.2,25.5,95.2,24.5z"/>
			<path class="st0" d="M102.4,24.1v2.6h-0.7v-0.6c-0.3,0.4-0.7,0.6-1.4,0.6c-1,0-1.6-0.5-1.6-1.3c0-0.7,0.5-1.3,1.8-1.3h1.3v-0.2
				c0-0.7-0.4-1.1-1.2-1.1c-0.5,0-1,0.2-1.4,0.5l-0.3-0.6c0.5-0.4,1.1-0.6,1.8-0.6C101.8,22.3,102.4,22.9,102.4,24.1z M101.6,25.4
				v-0.6h-1.2c-0.8,0-1,0.3-1,0.7c0,0.4,0.4,0.7,1,0.7C101,26.2,101.4,25.9,101.6,25.4z"/>
			<path class="st0" d="M105,24.5c0-1.3,1-2.2,2.3-2.2c0.8,0,1.4,0.3,1.8,0.9l-0.6,0.4c-0.3-0.4-0.7-0.6-1.2-0.6
				c-0.9,0-1.5,0.6-1.5,1.5c0,0.9,0.6,1.5,1.5,1.5c0.5,0,0.9-0.2,1.2-0.6l0.6,0.4c-0.3,0.6-1,0.9-1.8,0.9
				C106,26.8,105,25.8,105,24.5z"/>
			<path class="st0" d="M111.4,21c0-0.3,0.2-0.5,0.5-0.5c0.3,0,0.5,0.2,0.5,0.5c0,0.3-0.2,0.5-0.5,0.5
				C111.7,21.5,111.4,21.3,111.4,21z M111.6,22.4h0.8v4.4h-0.8V22.4z"/>
			<path class="st0" d="M114.9,24.5c0-1.3,1-2.2,2.3-2.2c1.3,0,2.3,0.9,2.3,2.2s-1,2.2-2.3,2.2C115.9,26.8,114.9,25.8,114.9,24.5z
				 M118.7,24.5c0-0.9-0.6-1.5-1.5-1.5s-1.5,0.6-1.5,1.5c0,0.9,0.6,1.5,1.5,1.5S118.7,25.5,118.7,24.5z M117.7,20.7h1l-1.4,1.1h-0.7
				L117.7,20.7z"/>
			<path class="st0" d="M126.2,24.2v2.5h-0.8v-2.4c0-0.9-0.4-1.3-1.2-1.3c-0.8,0-1.4,0.5-1.4,1.4v2.2h-0.8v-4.4h0.8V23
				c0.3-0.4,0.9-0.7,1.6-0.7C125.4,22.3,126.2,22.9,126.2,24.2z"/>
		</g>
		<g>
			<path class="st1" d="M82.4,39.1v3.2H71.3v-2.5l5.5-6.4h-5.4v-3.2h10.7v2.5l-5.5,6.4H82.4z"/>
			<path class="st2" d="M82.7,36.2c0-3.7,2.9-6.3,6.8-6.3c3.9,0,6.8,2.7,6.8,6.3c0,3.7-2.9,6.3-6.8,6.3
				C85.6,42.6,82.7,39.9,82.7,36.2z M92.2,36.2c0-1.9-1.2-3-2.7-3c-1.5,0-2.7,1.1-2.7,3c0,1.9,1.2,3,2.7,3
				C91,39.3,92.2,38.1,92.2,36.2z"/>
			<path class="st3" d="M97,36.2c0-3.7,2.9-6.3,6.8-6.3c3.9,0,6.8,2.7,6.8,6.3c0,3.7-2.9,6.3-6.8,6.3C99.9,42.6,97,39.9,97,36.2z
				 M106.6,36.2c0-1.9-1.2-3-2.7-3c-1.5,0-2.7,1.1-2.7,3c0,1.9,1.2,3,2.7,3C105.3,39.3,106.6,38.1,106.6,36.2z"/>
			<path class="st4" d="M122.6,42.3l0-5.5l-2.6,4.4h-1.8l-2.6-4.2v5.3h-3.7V30.2h3.4l3.9,6.5l3.8-6.5h3.4l0,12.1H122.6z"/>
			<path class="st5" d="M127.5,36.2c0-3.7,2.9-6.3,6.8-6.3c3.9,0,6.8,2.7,6.8,6.3c0,3.7-2.9,6.3-6.8,6.3
				C130.4,42.6,127.5,39.9,127.5,36.2z M137,36.2c0-1.9-1.2-3-2.7-3c-1.5,0-2.7,1.1-2.7,3c0,1.9,1.2,3,2.7,3
				C135.8,39.3,137,38.1,137,36.2z"/>
			<path class="st6" d="M141.5,41.3l1.3-3c1.1,0.7,2.7,1.1,4,1.1c1.2,0,1.6-0.2,1.6-0.7c0-1.5-6.7-0.3-6.7-4.8
				c0-2.2,1.9-4.1,5.6-4.1c1.6,0,3.3,0.3,4.6,1.1l-1.2,3c-1.2-0.6-2.3-0.9-3.4-0.9c-1.2,0-1.6,0.3-1.6,0.8c0,1.5,6.7,0.2,6.7,4.7
				c0,2.2-1.9,4.1-5.6,4.1C144.8,42.6,142.8,42.1,141.5,41.3z"/>
		</g>
		<g>
			<path class="st1" d="M74.2,49h-1.4l-0.3,0.7h-1.3l1.6-3.7h1.2l1.6,3.7h-1.3L74.2,49z M73.9,48l-0.4-0.9L73.2,48H73.9z"/>
			<path class="st7" d="M79.3,45.9h1.3v2.8h1.7v1h-3V45.9z"/>
			<path class="st2" d="M92.5,48.7h-0.3v0.9h-1.3v-3.7h1.8c1,0,1.7,0.5,1.7,1.4c0,0.5-0.3,0.9-0.7,1.2l0.8,1.2h-1.3L92.5,48.7z
				 M92.6,46.8h-0.5v0.9h0.5c0.3,0,0.5-0.2,0.5-0.4C93.1,47,92.9,46.8,92.6,46.8z"/>
			<path class="st8" d="M101.3,48.7v1h-3.1v-3.7h3v1h-1.8v0.4h1.6v0.9h-1.6v0.5H101.3z"/>
			<path class="st3" d="M104.8,49.3l0.4-0.9c0.4,0.2,0.8,0.3,1.2,0.3c0.4,0,0.5-0.1,0.5-0.2c0-0.5-2.1-0.1-2.1-1.5
				c0-0.7,0.6-1.3,1.7-1.3c0.5,0,1,0.1,1.4,0.3l-0.4,0.9c-0.4-0.2-0.7-0.3-1-0.3c-0.4,0-0.5,0.1-0.5,0.2c0,0.4,2.1,0.1,2.1,1.5
				c0,0.7-0.6,1.3-1.7,1.3C105.8,49.7,105.2,49.5,104.8,49.3z"/>
			<path class="st9" d="M111.7,47.7c0-1.1,0.9-2,2.1-2c0.7,0,1.3,0.3,1.7,0.7l-0.8,0.7c-0.2-0.3-0.5-0.4-0.8-0.4
				c-0.5,0-0.9,0.4-0.9,0.9c0,0.6,0.4,0.9,0.9,0.9c0.3,0,0.6-0.2,0.8-0.4l0.8,0.7c-0.4,0.5-0.9,0.7-1.7,0.7
				C112.6,49.7,111.7,48.9,111.7,47.7z"/>
			<path class="st4" d="M121.7,49h-1.4l-0.3,0.7h-1.3l1.6-3.7h1.2l1.6,3.7h-1.3L121.7,49z M121.3,48l-0.4-0.9l-0.4,0.9H121.3z"/>
			<path class="st5" d="M127.4,46.8h-1.1v-1h3.5v1h-1.1v2.8h-1.3V46.8z"/>
			<path class="st6" d="M136.5,48.7v1h-3.1v-3.7h3v1h-1.8v0.4h1.6v0.9h-1.6v0.5H136.5z"/>
		</g>
	</g>
	<g>
		<g>
			<g>
				<g>
					<path class="st1" d="M14.1,37.2c-0.2,0-0.5,0-0.7-0.1c-0.2-0.1-0.5-0.2-0.7-0.3c-0.4-0.2-0.9-0.5-1.3-0.7
						c-0.8-0.6-1.5-1.2-2.1-2c-0.6-0.8-1.1-1.6-1.5-2.5c-0.2-0.5-0.3-0.9-0.4-1.4c-0.1-0.5-0.2-1-0.2-1.5c0-0.5,0-1,0.1-1.5
						c0.1-0.5,0.3-1,0.5-1.4c0.2-0.5,0.4-0.9,0.7-1.3c0.1-0.2,0.2-0.4,0.4-0.6L9,23.5l0.1-0.2l0-0.1l0.1-0.1
						c0.2-0.2,0.3-0.4,0.5-0.6l0.5-0.6l0.9-1.1l1.9-2.2c0.1-0.2,0.4-0.2,0.6,0c0.1,0.1,0.2,0.3,0.1,0.4l0,0c0,0,0,0.1,0,0.1
						c0,0,0,0.1,0,0.1c0,0.1,0,0.2,0,0.3c0,0.2,0,0.3,0,0.5c0.1,0.3,0.2,0.7,0.4,1c0.2,0.3,0.4,0.6,0.7,0.8c0.3,0.2,0.5,0.4,0.9,0.6
						c0.3,0.2,0.7,0.3,1,0.4c0.4,0.1,0.8,0.2,1.2,0.4c0.4,0.1,0.9,0.3,1.2,0.7c0.4,0.4,0.5,0.9,0.6,1.3c0.1,0.5,0.1,0.9,0.1,1.3
						c0,0.2,0,0.4,0,0.6c0,0,0,0.1,0,0.1l0,0.1l0,0c0,0,0,0.1,0,0.1c0,0,0.1,0.1,0.3,0.2c0.1,0,0.2,0.1,0.3,0.1
						c0.1,0.1,0.2,0.1,0.4,0.3c0.1,0.1,0.1,0.2,0.2,0.3c0,0.1,0.1,0.2,0.1,0.3c0,0,0,0.1,0,0.1c0,0,0,0.1,0,0.1l0,0.1
						c0,0,0,0.1,0,0.1c-0.1,0.2-0.1,0.4-0.2,0.6c-0.2,0.4-0.4,0.8-0.8,1.1c-0.2,0.2-0.4,0.3-0.6,0.4c-0.2,0.1-0.5,0.1-0.7,0.2
						c-0.4,0.1-0.8,0.1-1.2,0.1c-0.4,0-0.8,0.1-1.1,0.2l0,0c-0.2,0-0.4-0.1-0.4-0.3c0-0.2,0.1-0.4,0.2-0.4c0.8-0.3,1.6-0.4,2.3-0.5
						c0.3-0.1,0.6-0.2,0.8-0.4c0.2-0.2,0.4-0.5,0.5-0.8c0.1-0.2,0.1-0.3,0.2-0.5c0,0,0,0,0-0.1l0,0c0,0,0,0,0,0c0,0,0,0,0,0
						c0,0,0,0.1,0,0.1c0,0,0,0-0.1-0.1c-0.1,0-0.2-0.1-0.3-0.1c-0.1-0.1-0.2-0.1-0.3-0.2c-0.1-0.1-0.2-0.2-0.3-0.3
						c-0.1-0.1-0.2-0.3-0.2-0.5l0-0.1l0-0.1c0-0.1,0-0.1,0-0.2c0-0.2,0-0.4,0-0.6c0-0.4,0-0.8,0-1.1c0-0.3-0.1-0.6-0.3-0.8
						c-0.2-0.2-0.5-0.4-0.8-0.5c-0.7-0.2-1.5-0.4-2.3-0.8c-0.4-0.2-0.8-0.5-1.1-0.8c-0.3-0.3-0.6-0.7-0.8-1.1
						c-0.2-0.4-0.4-0.8-0.4-1.3c0-0.2,0-0.4,0-0.7c0-0.1,0-0.2,0-0.3c0-0.1,0-0.1,0-0.2c0-0.1,0-0.1,0-0.2l0.7,0.4l-2,2.1l-1,1.1
						l-0.5,0.5c-0.2,0.2-0.3,0.4-0.5,0.5c-1.1,1.5-2.2,3.2-2.1,5.1c0,0.9,0.2,1.9,0.5,2.8c0.3,0.9,0.8,1.7,1.3,2.5
						c0.6,0.8,1.2,1.5,2,2c0.4,0.3,0.8,0.6,1.2,0.8c0.2,0.1,0.4,0.2,0.7,0.3C13.6,37.2,13.8,37.2,14.1,37.2z"/>
					<path class="st1" d="M14.5,21c0.2-0.4,0.5-0.7,0.8-1c0.1-0.2,0.3-0.3,0.5-0.5c0.1-0.1,0.2-0.1,0.3-0.2c0,0,0.1-0.1,0.2-0.1
						c0.1,0,0.1-0.1,0.2-0.1l0,0l0,0c0.1,0,0.3,0.1,0.3,0.2c0,0.1,0,0.1,0,0.2c-0.1,0.2-0.2,0.5-0.3,0.7c-0.1,0.3-0.1,0.5-0.2,0.8
						c0,0.3,0,0.5,0,0.8c0.1,0.3,0.2,0.5,0.3,0.8c-0.2-0.2-0.4-0.4-0.5-0.7C16.1,21.6,16,21.3,16,21c0-0.3,0-0.6,0-0.9
						c0-0.3,0.1-0.6,0.2-0.9l0.3,0.4v0c0,0-0.1,0-0.1,0c0,0-0.1,0-0.1,0c-0.1,0-0.2,0.1-0.3,0.1c-0.2,0.1-0.3,0.2-0.5,0.3
						C15.2,20.4,14.9,20.7,14.5,21z"/>
					<g>
						<path class="st1" d="M16.7,28.5l-2.8-1.8l3,1.5c0.1,0,0.1,0.2,0.1,0.2C16.9,28.5,16.8,28.5,16.7,28.5
							C16.7,28.5,16.7,28.5,16.7,28.5z"/>
						<path class="st1" d="M16.6,29l-3.3-1.2l3.4,0.9c0.1,0,0.2,0.1,0.1,0.2C16.8,29,16.7,29.1,16.6,29C16.6,29,16.6,29,16.6,29z"/>
						<path class="st1" d="M16.6,29.6l-3.2-0.3l3.2,0c0.1,0,0.2,0.1,0.2,0.2C16.8,29.6,16.7,29.6,16.6,29.6
							C16.6,29.6,16.6,29.6,16.6,29.6z"/>
					</g>
					<g>
						<path class="st1" d="M21.2,30.4l2.6,2.1L21,30.6c-0.1-0.1-0.1-0.2-0.1-0.2C21,30.3,21.1,30.3,21.2,30.4
							C21.2,30.4,21.2,30.4,21.2,30.4z"/>
						<path class="st1" d="M21.3,29.8l3.2,1.5l-3.3-1.2c-0.1,0-0.1-0.1-0.1-0.2S21.2,29.8,21.3,29.8C21.3,29.8,21.3,29.8,21.3,29.8z
							"/>
						<path class="st1" d="M21.3,29.2l3.1,0.7l-3.2-0.3c-0.1,0-0.2-0.1-0.2-0.2C21.1,29.3,21.2,29.2,21.3,29.2
							C21.3,29.2,21.3,29.2,21.3,29.2z"/>
					</g>
				</g>
			</g>
			<g>
				<g>
					<path class="st6" d="M55.3,38.4c0-0.6,0.1-1.1,0.1-1.7c0.1-0.6,0.1-1.1,0.2-1.7c0.1-0.6,0.1-1.1,0.2-1.7l0.3-1.7l0-0.1l0,0
						c0,0,0,0,0,0c0,0,0,0,0,0c0,0,0,0,0,0c0,0,0-0.1,0-0.1c0-0.1-0.1-0.1-0.2-0.2c-0.2-0.1-0.4-0.2-0.7-0.3
						c-0.5-0.2-1.1-0.2-1.7-0.3c-0.3-0.1-0.6-0.1-0.9-0.2c-0.3-0.1-0.6-0.3-0.9-0.5c-0.5-0.4-0.9-1-1.1-1.6l0,0l-0.4-0.7L50,27.5
						c0-0.1,0-0.1-0.1-0.1c0-0.1,0-0.2-0.1-0.3c0-0.2,0-0.4,0.1-0.6c0-0.1,0.1-0.2,0.1-0.2c0.1-0.1,0.1-0.1,0.2-0.2
						c0.1-0.1,0.3-0.2,0.4-0.3c0.1,0,0.1-0.1,0.2-0.1l0.2-0.1c0.1-0.1,0.2-0.1,0.4-0.1c0.5-0.2,1-0.3,1.4-0.5c0.4-0.2,0.6-0.6,0.9-1
						c0.3-0.4,0.6-0.9,1-1.3c0.4-0.4,0.8-0.7,1.3-0.9c0.5-0.2,1-0.4,1.6-0.4c0.5-0.1,1.1,0,1.6,0.2c0.5,0.2,1,0.4,1.5,0.7
						c0.4,0.3,0.8,0.8,1.1,1.2l0.2,0.3c0.1,0.1,0.1,0.2,0.2,0.4l0.1,0.2l0.1,0.2l0.1,0.4c0.1,0.3,0.2,0.5,0.2,0.8l0.2,0.8
						c0.2,1,0.5,1.9,1,2.8c0.2,0.5,0.5,0.9,0.8,1.3c0.3,0.4,0.6,0.8,1,1.2c-0.4-0.3-0.8-0.7-1.1-1.1c-0.3-0.4-0.6-0.8-0.9-1.3
						c-0.5-0.9-0.9-1.9-1.1-2.9l-0.2-0.7c-0.1-0.2-0.1-0.5-0.2-0.7l-0.1-0.3l-0.1-0.2l-0.1-0.2c-0.1-0.1-0.1-0.2-0.2-0.3l-0.2-0.3
						c-0.3-0.4-0.6-0.8-1-1c-0.4-0.3-0.8-0.5-1.3-0.6C58.7,22,58.2,22,57.8,22c-0.5,0.1-0.9,0.2-1.4,0.4c-0.4,0.2-0.8,0.5-1.1,0.8
						c-0.3,0.3-0.6,0.7-0.9,1.2c-0.1,0.2-0.3,0.5-0.5,0.7c-0.2,0.2-0.4,0.4-0.7,0.6c-0.3,0.2-0.5,0.3-0.8,0.3l-0.7,0.2
						c-0.1,0-0.2,0.1-0.3,0.1l-0.2,0.1c0,0-0.1,0-0.1,0.1c-0.2,0.1-0.3,0.2-0.4,0.4c0,0.1,0,0.1,0,0.2c0,0,0,0.1,0,0.1c0,0,0,0,0,0
						l0,0.1l0.4,0.7c0,0,0,0,0,0l0,0c0.2,0.5,0.5,1,0.9,1.3c0.2,0.2,0.4,0.3,0.7,0.4c0.3,0.1,0.5,0.2,0.8,0.2
						c0.6,0.1,1.2,0.2,1.8,0.4c0.3,0.1,0.6,0.2,0.9,0.4c0.1,0.1,0.3,0.2,0.4,0.5c0.1,0.1,0.1,0.2,0.1,0.3c0,0.1,0,0.1,0,0.2
						c0,0,0,0.1,0,0.1c0,0,0,0,0,0.1c0,0,0,0,0,0.1l0-0.1l-0.3,1.7c-0.1,0.6-0.2,1.1-0.3,1.7c-0.1,0.6-0.2,1.1-0.4,1.7
						C55.6,37.3,55.5,37.9,55.3,38.4z"/>
					<path class="st6" d="M57.5,23.7c0.1,0.5,0.2,1,0.4,1.4c0.2,0.5,0.3,0.9,0.6,1.3c0.1,0.2,0.3,0.3,0.5,0.4c0.2,0.1,0.4,0.1,0.6,0
						c0.4-0.1,0.9-0.3,1.3-0.6c-0.3,0.4-0.7,0.8-1.2,1c-0.3,0.1-0.6,0.1-0.9,0c-0.3-0.1-0.5-0.3-0.7-0.5c-0.2-0.2-0.3-0.5-0.4-0.7
						c-0.1-0.2-0.2-0.5-0.2-0.8C57.4,24.7,57.4,24.2,57.5,23.7z"/>
					<circle class="st6" cx="55.5" cy="25.1" r="0.5"/>
				</g>
			</g>
			<path class="st3" d="M25,27.4c-0.7-0.6-1.2-1.3-1.7-2.1c-0.2-0.4-0.5-0.8-0.6-1.2c-0.2-0.4-0.4-0.8-0.5-1.3
				c-0.6-1.7-0.7-3.6-0.3-5.4c0.1-0.4,0.2-0.9,0.4-1.3c0.1-0.4,0.3-0.8,0.5-1.3c0.4-0.8,0.8-1.6,1.4-2.3c0.6-0.7,1.2-1.4,2-1.8
				c0.4-0.2,0.9-0.4,1.3-0.5c0.5-0.1,0.9-0.1,1.4,0l-0.1,0l0,0c0.1-0.5,0.3-0.9,0.4-1.4c0.1-0.2,0.2-0.5,0.3-0.7
				c0.1-0.1,0.1-0.2,0.2-0.4c0-0.1,0.1-0.1,0.1-0.2c0.1-0.1,0.1-0.1,0.2-0.2c0.2-0.1,0.5-0.1,0.6,0.1c0,0,0,0,0,0l0,0.1l0,0
				c0.1,0.3,0.2,0.5,0.3,0.8C31,8.7,31.1,9,31.1,9.2c0.1,0.3,0.1,0.5,0.1,0.8c0,0.3,0,0.6,0,0.9l-0.8-0.4l2.1-2.3l0,0
				c0.2-0.2,0.5-0.2,0.7,0c0.1,0.1,0.1,0.2,0.1,0.3c0,0.2,0.1,0.3,0.1,0.5c0,0.2,0,0.3,0,0.5c0,0.3,0,0.7,0,1c0,0.3-0.1,0.7-0.3,1
				c-0.1,0.3-0.4,0.6-0.6,0.9l0.2-0.4c0,0.2,0.1,0.4,0.1,0.5c0,0.2,0.1,0.4,0.1,0.5c0.1,0.2,0.1,0.3,0.2,0.5
				c0.1,0.1,0.2,0.3,0.2,0.3l0,0c0.1,0.1,0.2,0.2,0.2,0.3c0,0.2,0,0.4,0,0.6c0,0.2,0,0.4,0,0.6c0,0.4-0.1,0.8-0.3,1.3l0-0.2
				c0,0.6,0.1,1.2,0.2,1.8c0,0.3,0.1,0.6,0.2,0.9c0.1,0.3,0.2,0.6,0.3,0.8c0,0.1,0.1,0.1,0.1,0.2l0.1,0.2c0.1,0.2,0.2,0.4,0.2,0.6
				c0.1,0.4,0.1,0.8,0,1.1c-0.1,0.3-0.1,0.7-0.2,1c-0.1,0.3-0.2,0.6-0.4,0.9c0,0.1-0.1,0.1-0.1,0.2l0,0l0,0c-0.1,0-0.1,0.1-0.2,0.1
				c-0.1,0-0.1,0-0.2,0.1c-0.1,0-0.2,0.1-0.3,0.1c-0.2,0.1-0.5,0.1-0.7,0.1c-0.5,0-0.9-0.1-1.3-0.4c0.4,0.1,0.8,0,1.2-0.1
				c0.2-0.1,0.4-0.2,0.5-0.3c0.1-0.1,0.2-0.1,0.2-0.2c0,0,0.1-0.1,0.1-0.1c0,0,0.1-0.1,0.1-0.1l0,0l-0.1,0.2
				c0.2-0.5,0.4-1.1,0.5-1.7c0-0.3,0-0.5,0-0.8c0-0.1-0.1-0.2-0.1-0.3l-0.1-0.2c-0.1-0.1-0.1-0.2-0.1-0.3c-0.2-0.3-0.3-0.7-0.3-1
				c-0.1-0.3-0.1-0.6-0.2-1c-0.1-0.6-0.2-1.3-0.2-1.9c0-0.1,0-0.1,0-0.2l0,0c0.1-0.3,0.2-0.6,0.2-1c0-0.2,0-0.4,0-0.5
				c0-0.2,0-0.4,0-0.5l0.2,0.3c-0.2-0.2-0.4-0.4-0.5-0.6c-0.1-0.2-0.2-0.4-0.3-0.6c-0.1-0.2-0.1-0.4-0.2-0.6c0-0.2-0.1-0.4-0.1-0.6
				c0-0.2,0-0.3,0.2-0.4l0,0c0.2-0.1,0.3-0.3,0.4-0.6c0.1-0.2,0.2-0.5,0.2-0.7c0-0.3,0-0.5,0-0.8c0-0.3,0-0.6-0.1-0.8l0.8,0.2
				l-2.1,2.3l0,0c-0.2,0.2-0.5,0.2-0.7,0c-0.1-0.1-0.2-0.3-0.1-0.5c0-0.1,0-0.4,0-0.6c0-0.2-0.1-0.5-0.1-0.7C30.2,9.2,30.1,9,30,8.7
				C30,8.5,29.9,8.3,29.8,8l0,0l0.7,0.2c0,0,0,0,0,0c0,0-0.1,0.1-0.1,0.1c-0.1,0.1-0.1,0.2-0.2,0.2C30,8.8,29.8,9,29.7,9.2
				c-0.3,0.4-0.5,0.8-0.8,1.2l0,0c0,0,0,0.1-0.1,0l0,0c-0.4,0-0.9,0-1.3,0.2c-0.4,0.1-0.8,0.3-1.1,0.5c-0.7,0.5-1.3,1.1-1.8,1.8
				c-0.5,0.7-0.9,1.5-1.3,2.3c-0.2,0.4-0.3,0.8-0.5,1.2c-0.1,0.4-0.3,0.8-0.4,1.2c0,0.2-0.1,0.4-0.1,0.6l-0.1,0.3l0,0.3
				c-0.1,0.4-0.1,0.9-0.1,1.3c0,0.9,0.1,1.7,0.4,2.6c0.2,0.8,0.6,1.7,1,2.4C23.9,26,24.4,26.7,25,27.4z"/>
			<g>
				<g>
					<path class="st5" d="M39.4,17.3c0.3,1.2,0.8,2.4,1.3,3.5c0.3,0.6,0.6,1.1,1,1.6c0.2,0.2,0.4,0.5,0.6,0.7
						c0.2,0.2,0.5,0.4,0.7,0.6c0.2,0.2,0.5,0.3,0.8,0.4c0.3,0.1,0.6,0.2,0.8,0.3c0.6,0.1,1.1,0.1,1.7-0.1c0.6-0.2,1.1-0.5,1.5-0.9
						c0.2-0.2,0.5-0.4,0.7-0.6c0.2-0.2,0.4-0.4,0.6-0.7l0,0.5c-0.3-0.5-0.6-1-0.8-1.6c-0.2-0.5-0.5-1.1-0.7-1.6
						c-0.4-1.1-0.6-2.3-0.5-3.6c0.1-0.6,0.3-1.2,0.6-1.8c0.3-0.6,0.8-1,1.4-1.3c0.1-0.1,0.3-0.1,0.4-0.2c0.1-0.1,0.3-0.1,0.4-0.2
						c0.1-0.1,0.3-0.1,0.4-0.2l0.4-0.1c0.1,0,0.3-0.1,0.4-0.1l0.4-0.1c0.3,0,0.6-0.1,0.9-0.1c0.2,0,0.5,0.2,0.5,0.4c0,0,0,0.1,0,0.1
						l0,0c0,0,0,0.1,0,0.1c0,0,0,0.1,0,0.1c0,0.1,0,0.1,0,0.2c0,0.1-0.1,0.2-0.1,0.4c-0.1,0.2-0.2,0.5-0.4,0.7
						c-0.3,0.4-0.7,0.8-1.2,1L51,14.8c-0.1,0-0.2,0.1-0.4,0.1l-0.2,0c-0.1,0-0.1,0-0.2,0l-0.4,0c-0.2,0-0.5,0-0.7,0l-0.7-0.1l0.3,0
						l0,0c-0.1,0-0.1,0-0.1,0c0,0,0,0-0.1,0c-0.1,0-0.1,0-0.1,0c-0.1,0-0.2,0-0.2,0c-0.1,0-0.1,0-0.2-0.1c-0.1,0-0.1-0.1-0.1-0.1
						c-0.2-0.1-0.3-0.3-0.4-0.4c-0.2-0.3-0.4-0.6-0.5-0.9c-0.1-0.3-0.2-0.6-0.3-0.9c-0.1-0.2-0.1-0.3-0.2-0.4c0-0.1-0.1-0.1-0.1-0.2
						l-0.1-0.2c-0.3-0.5-0.8-0.9-1.4-1.1c-0.6-0.2-1.2-0.3-1.9-0.2c0.6-0.2,1.3-0.2,2,0c0.6,0.2,1.3,0.5,1.7,1.1l0.1,0.2
						c0.1,0.1,0.1,0.1,0.1,0.2c0.1,0.2,0.2,0.3,0.2,0.5c0.1,0.3,0.3,0.6,0.4,0.8c0.1,0.3,0.3,0.5,0.5,0.7c0.1,0.1,0.2,0.2,0.3,0.2
						c0,0,0,0,0.1,0c0,0,0,0,0,0c0,0,0,0,0,0c0,0,0,0,0,0c0,0,0,0,0,0c0,0,0,0-0.1,0l0,0l0.3,0l0.6,0.1c0.2,0,0.4,0,0.6,0l0.3,0
						c0,0,0.1,0,0.1,0l0.1,0c0.1,0,0.2,0,0.3-0.1l0.3-0.1c0.3-0.2,0.6-0.4,0.8-0.7c0.1-0.1,0.2-0.3,0.3-0.5c0-0.1,0.1-0.2,0.1-0.3
						c0-0.1,0-0.2,0-0.2l0.5,0.5c-1.1,0.1-2.2,0.3-3.1,0.8c-0.4,0.3-0.8,0.6-1.1,1C48.3,15,48.1,15.5,48,16c-0.1,0.5,0,1,0,1.6
						c0.1,0.5,0.2,1.1,0.4,1.6c0.3,1,0.8,2.1,1.4,3l0,0c0.1,0.2,0.1,0.3,0,0.5c-0.2,0.3-0.4,0.5-0.7,0.7c-0.2,0.2-0.5,0.4-0.8,0.6
						c-0.5,0.4-1.1,0.7-1.8,0.9c-0.7,0.2-1.4,0.2-2.1,0.1c-0.3-0.1-0.7-0.2-1-0.4c-0.3-0.2-0.6-0.3-0.9-0.5c-0.5-0.4-1-0.9-1.4-1.4
						c-0.4-0.5-0.7-1.1-0.9-1.7C39.8,19.8,39.5,18.6,39.4,17.3z"/>
					<path class="st5" d="M42,12.2c-0.3-0.4-0.7-0.8-1.1-1.2c-0.4-0.4-0.9-0.7-1.3-0.9c-0.2-0.1-0.5-0.2-0.7-0.3l-0.4-0.1
						c-0.1,0-0.3-0.1-0.4-0.1c-0.5-0.1-1-0.1-1.5-0.1l0.4-0.3v0c0,0.2,0,0.5,0,0.8c0,0.3,0,0.5,0.1,0.8c0.1,0.5,0.3,1.1,0.6,1.5
						c0.3,0.4,0.8,0.8,1.3,0.9c0.5,0.2,1.1,0.2,1.7,0.2c-0.6,0.1-1.2,0.1-1.7,0c-0.6-0.1-1.1-0.4-1.6-0.9c-0.4-0.4-0.7-1-0.9-1.6
						c-0.1-0.3-0.2-0.6-0.2-0.9c0-0.3-0.1-0.6-0.1-0.9l0,0l0,0c0-0.2,0.2-0.3,0.4-0.3c0.6,0,1.2,0.1,1.7,0.3c0.1,0,0.3,0.1,0.4,0.1
						L39,9.4c0.2,0.1,0.5,0.3,0.7,0.4c0.5,0.3,0.9,0.7,1.3,1.1C41.4,11.3,41.8,11.8,42,12.2z"/>
				</g>
			</g>
		</g>
		<g>
			<path class="st10" d="M31.4,52.9c-0.6,0.3-1.2,0.6-1.8,0.8c-0.7,0.2-1.3,0.2-2,0.2c-1.3,0-2.7-0.3-3.9-0.9
				c-1.2-0.6-2.2-1.6-2.8-2.9c-0.6-1.2-0.8-2.6-0.8-4l0,0c-0.2-1.6,0.3-3.1,1.2-4.4c0.9-1.3,2-2.3,3.1-3.3c1.1-1,2-2.1,2.8-3.3
				c0.8-1.3,1.7-2.5,2.9-3.6c1.2-1,2.5-1.8,4.1-2.2c1.5-0.4,3.1-0.4,4.7,0c1.5,0.4,2.9,1.2,4,2.3c1.1,1.1,2,2.3,2.9,3.5
				c0.9,1.2,1.9,2.2,2.9,3.3c1,1.1,2.2,2,3,3.4c0.8,1.3,1.3,2.9,1.3,4.5c0,1.6-0.6,3.1-1.3,4.4c-0.8,1.4-2.1,2.4-3.6,2.9
				c-1.5,0.5-3.1,0.5-4.6,0.2c-0.7-0.2-1.5-0.4-2.2-0.6c-0.7-0.2-1.4-0.6-2-1c-1.3-0.6-2.8-1-4.3-0.7c1.4-0.5,3-0.2,4.4,0.3
				c0.7,0.3,1.4,0.6,2.1,0.8c0.7,0.2,1.4,0.4,2.1,0.5c1.4,0.3,2.9,0.2,4.2-0.3c1.3-0.5,2.5-1.4,3.1-2.6c0.7-1.3,1.1-2.7,1.2-4.1
				c0-1.4-0.4-2.8-1.2-4c-0.7-1.2-1.9-2.1-2.9-3.2c-1-1.1-2.1-2.2-3-3.4c-0.9-1.2-1.7-2.4-2.8-3.4c-1-1-2.3-1.7-3.6-2.1
				c-1.4-0.4-2.8-0.4-4.2,0c-1.4,0.4-2.6,1.1-3.7,2c-1.1,0.9-2,2.1-2.8,3.3c-0.8,1.3-1.8,2.5-3,3.5c-1.1,1-2.2,2-3,3.1
				c-0.8,1.2-1.3,2.6-1.2,4l0,0l0,0c0,1.3,0.1,2.6,0.7,3.7c0.5,1.2,1.5,2.1,2.6,2.7c1.1,0.6,2.4,0.9,3.7,1c0.7,0,1.3,0,1.9-0.1
				C30.2,53.4,30.8,53.1,31.4,52.9z"/>
		</g>
	</g>
</g>
</svg>
