<?xml version="1.0" encoding="utf-8"?>
<!-- Generator: Adobe Illustrator 23.0.2, SVG Export Plug-In . SVG Version: 6.00 Build 0)  -->
<svg version="1.1" id="Capa_1" xmlns="http://www.w3.org/2000/svg" xmlns:xlink="http://www.w3.org/1999/xlink" x="0px" y="0px"
	 viewBox="0 0 158 61.2" style="enable-background:new 0 0 158 61.2;" xml:space="preserve">
<style type="text/css">
	.st0{fill:#FFFFFF;}
</style>
<g>
	<title>Group 15</title>
	<desc>Created with Sketch.</desc>
	<g>
		<g>
			<g>
				<path class="st0" d="M71.3,21.3v2h2.9V24h-2.9v2.3h-0.8v-5.7h4.1v0.7H71.3z"/>
			</g>
			<g>
				<path class="st0" d="M81,22v4.4h-0.8v-0.7c-0.3,0.5-0.9,0.7-1.5,0.7c-1.1,0-1.9-0.6-1.9-1.9V22h0.8v2.4c0,0.9,0.4,1.3,1.2,1.3
					c0.8,0,1.3-0.5,1.3-1.4V22H81z"/>
			</g>
			<g>
				<path class="st0" d="M88.1,23.8v2.5h-0.8v-2.4c0-0.9-0.4-1.3-1.2-1.3c-0.8,0-1.4,0.5-1.4,1.4v2.2h-0.8v-4.4h0.8v0.8
					c0.3-0.4,0.9-0.7,1.6-0.7C87.4,21.9,88.1,22.5,88.1,23.8z"/>
			</g>
			<g>
				<path class="st0" d="M95.2,20.2v6.1h-0.8v-0.7c-0.4,0.5-0.9,0.7-1.6,0.7c-1.3,0-2.2-0.9-2.2-2.2s0.9-2.2,2.2-2.2
					c0.6,0,1.2,0.2,1.5,0.7v-2.4H95.2z M94.4,24.1c0-0.9-0.6-1.5-1.5-1.5c-0.8,0-1.5,0.6-1.5,1.5s0.6,1.5,1.5,1.5
					C93.8,25.7,94.4,25.1,94.4,24.1z"/>
			</g>
			<g>
				<path class="st0" d="M101.6,23.7v2.6h-0.7v-0.6c-0.3,0.4-0.7,0.6-1.4,0.6c-1,0-1.6-0.5-1.6-1.3c0-0.7,0.5-1.3,1.8-1.3h1.3v-0.2
					c0-0.7-0.4-1.1-1.2-1.1c-0.5,0-1,0.2-1.4,0.5l-0.3-0.6c0.5-0.4,1.1-0.6,1.8-0.6C101,21.9,101.6,22.5,101.6,23.7z M100.8,25v-0.6
					h-1.2c-0.8,0-1,0.3-1,0.7c0,0.4,0.4,0.7,1,0.7S100.6,25.5,100.8,25z"/>
			</g>
			<g>
				<path class="st0" d="M104.2,24.1c0-1.3,1-2.2,2.3-2.2c0.8,0,1.4,0.3,1.8,0.9l-0.6,0.4c-0.3-0.4-0.7-0.6-1.2-0.6
					c-0.9,0-1.5,0.6-1.5,1.5s0.6,1.5,1.5,1.5c0.5,0,0.9-0.2,1.2-0.6l0.6,0.4c-0.3,0.6-1,0.9-1.8,0.9
					C105.2,26.4,104.2,25.4,104.2,24.1z"/>
			</g>
			<g>
				<path class="st0" d="M110.6,20.6c0-0.3,0.2-0.5,0.5-0.5s0.5,0.2,0.5,0.5s-0.2,0.5-0.5,0.5C110.9,21.1,110.6,20.9,110.6,20.6z
					 M110.8,22h0.8v4.4h-0.8V22z"/>
			</g>
			<g>
				<path class="st0" d="M114.1,24.1c0-1.3,1-2.2,2.3-2.2s2.3,0.9,2.3,2.2s-1,2.2-2.3,2.2C115.1,26.4,114.1,25.4,114.1,24.1z
					 M117.9,24.1c0-0.9-0.6-1.5-1.5-1.5s-1.5,0.6-1.5,1.5s0.6,1.5,1.5,1.5S117.9,25.1,117.9,24.1z M116.9,20.3h1l-1.4,1.1h-0.7
					L116.9,20.3z"/>
			</g>
			<g>
				<path class="st0" d="M125.4,23.8v2.5h-0.8v-2.4c0-0.9-0.4-1.3-1.2-1.3c-0.8,0-1.4,0.5-1.4,1.4v2.2h-0.8v-4.4h0.8v0.8
					c0.3-0.4,0.9-0.7,1.6-0.7C124.6,21.9,125.4,22.5,125.4,23.8z"/>
			</g>
		</g>
		<g>
			<g>
				<g>
					<path class="st0" d="M81.6,38.7v3.2H70.5v-2.5L76,33h-5.4v-3.2h10.7v2.5l-5.5,6.4H81.6z"/>
				</g>
			</g>
			<g>
				<g>
					<path class="st0" d="M81.9,35.8c0-3.7,2.9-6.3,6.8-6.3s6.8,2.7,6.8,6.3c0,3.7-2.9,6.3-6.8,6.3C84.8,42.2,81.9,39.5,81.9,35.8z
						 M91.4,35.8c0-1.9-1.2-3-2.7-3s-2.7,1.1-2.7,3s1.2,3,2.7,3C90.2,38.9,91.4,37.7,91.4,35.8z"/>
				</g>
			</g>
			<g>
				<g>
					<path class="st0" d="M96.2,35.8c0-3.7,2.9-6.3,6.8-6.3s6.8,2.7,6.8,6.3c0,3.7-2.9,6.3-6.8,6.3C99.1,42.2,96.2,39.5,96.2,35.8z
						 M105.8,35.8c0-1.9-1.2-3-2.7-3s-2.7,1.1-2.7,3s1.2,3,2.7,3C104.5,38.9,105.8,37.7,105.8,35.8z"/>
				</g>
			</g>
			<g>
				<g>
					<path class="st0" d="M121.8,41.9v-5.5l-2.6,4.4h-1.8l-2.6-4.2v5.3h-3.7V29.8h3.4l3.9,6.5l3.8-6.5h3.4v12.1
						C125.6,41.9,121.8,41.9,121.8,41.9z"/>
				</g>
			</g>
			<g>
				<g>
					<path class="st0" d="M126.7,35.8c0-3.7,2.9-6.3,6.8-6.3c3.9,0,6.8,2.7,6.8,6.3c0,3.7-2.9,6.3-6.8,6.3
						C129.6,42.2,126.7,39.5,126.7,35.8z M136.2,35.8c0-1.9-1.2-3-2.7-3s-2.7,1.1-2.7,3s1.2,3,2.7,3C135,38.9,136.2,37.7,136.2,35.8
						z"/>
				</g>
			</g>
			<g>
				<g>
					<path class="st0" d="M140.7,40.9l1.3-3c1.1,0.7,2.7,1.1,4,1.1c1.2,0,1.6-0.2,1.6-0.7c0-1.5-6.7-0.3-6.7-4.8
						c0-2.2,1.9-4.1,5.6-4.1c1.6,0,3.3,0.3,4.6,1.1l-1.2,3c-1.2-0.6-2.3-0.9-3.4-0.9c-1.2,0-1.6,0.3-1.6,0.8c0,1.5,6.7,0.2,6.7,4.7
						c0,2.2-1.9,4.1-5.6,4.1C144,42.2,142,41.7,140.7,40.9z"/>
				</g>
			</g>
		</g>
		<g>
			<g>
				<g>
					<path class="st0" d="M73.4,48.6H72l-0.3,0.7h-1.3l1.6-3.7h1.2l1.6,3.7h-1.3L73.4,48.6z M73.1,47.6l-0.4-0.9l-0.3,0.9H73.1z"/>
				</g>
			</g>
			<g>
				<g>
					<path class="st0" d="M78.5,45.5h1.3v2.8h1.7v1h-3V45.5z"/>
				</g>
			</g>
			<g>
				<g>
					<path class="st0" d="M91.7,48.3h-0.3v0.9h-1.3v-3.7h1.8c1,0,1.7,0.5,1.7,1.4c0,0.5-0.3,0.9-0.7,1.2l0.8,1.2h-1.3L91.7,48.3z
						 M91.8,46.4h-0.5v0.9h0.5c0.3,0,0.5-0.2,0.5-0.4C92.3,46.6,92.1,46.4,91.8,46.4z"/>
				</g>
			</g>
			<g>
				<g>
					<path class="st0" d="M100.5,48.3v1h-3.1v-3.7h3v1h-1.8V47h1.6v0.9h-1.6v0.5h1.9V48.3z"/>
				</g>
			</g>
			<g>
				<g>
					<path class="st0" d="M104,48.9l0.4-0.9c0.4,0.2,0.8,0.3,1.2,0.3c0.4,0,0.5-0.1,0.5-0.2c0-0.5-2.1-0.1-2.1-1.5
						c0-0.7,0.6-1.3,1.7-1.3c0.5,0,1,0.1,1.4,0.3l-0.4,0.9c-0.4-0.2-0.7-0.3-1-0.3c-0.4,0-0.5,0.1-0.5,0.2c0,0.4,2.1,0.1,2.1,1.5
						c0,0.7-0.6,1.3-1.7,1.3C105,49.3,104.4,49.1,104,48.9z"/>
				</g>
			</g>
			<g>
				<g>
					<path class="st0" d="M110.9,47.3c0-1.1,0.9-2,2.1-2c0.7,0,1.3,0.3,1.7,0.7l-0.8,0.7c-0.2-0.3-0.5-0.4-0.8-0.4
						c-0.5,0-0.9,0.4-0.9,0.9c0,0.6,0.4,0.9,0.9,0.9c0.3,0,0.6-0.2,0.8-0.4l0.8,0.7c-0.4,0.5-0.9,0.7-1.7,0.7
						C111.8,49.3,110.9,48.5,110.9,47.3z"/>
				</g>
			</g>
			<g>
				<g>
					<path class="st0" d="M120.9,48.6h-1.4l-0.3,0.7h-1.3l1.6-3.7h1.2l1.6,3.7H121L120.9,48.6z M120.5,47.6l-0.4-0.9l-0.4,0.9H120.5
						z"/>
				</g>
			</g>
			<g>
				<g>
					<path class="st0" d="M126.6,46.4h-1.1v-1h3.5v1h-1.1v2.8h-1.3C126.6,49.2,126.6,46.4,126.6,46.4z"/>
				</g>
			</g>
			<g>
				<g>
					<path class="st0" d="M135.7,48.3v1h-3.1v-3.7h3v1h-1.8V47h1.6v0.9h-1.6v0.5h1.9V48.3z"/>
				</g>
			</g>
		</g>
	</g>
	<g>
		<g>
			<g>
				<g>
					<g>
						<path class="st0" d="M13.3,36.8c-0.2,0-0.5,0-0.7-0.1s-0.5-0.2-0.7-0.3c-0.4-0.2-0.9-0.5-1.3-0.7c-0.8-0.6-1.5-1.2-2.1-2
							c-0.6-0.8-1.1-1.6-1.5-2.5c-0.2-0.5-0.3-0.9-0.4-1.4s-0.2-1-0.2-1.5s0-1,0.1-1.5s0.3-1,0.5-1.4c0.2-0.5,0.4-0.9,0.7-1.3
							c0.1-0.2,0.2-0.4,0.4-0.6l0.1-0.4l0.1-0.2v-0.1l0.1-0.1c0.2-0.2,0.3-0.4,0.5-0.6l0.5-0.6l0.9-1.1l1.9-2.2
							c0.1-0.2,0.4-0.2,0.6,0c0.1,0.1,0.2,0.3,0.1,0.4l0,0v0.1v0.1c0,0.1,0,0.2,0,0.3c0,0.2,0,0.3,0,0.5c0.1,0.3,0.2,0.7,0.4,1
							s0.4,0.6,0.7,0.8c0.3,0.2,0.5,0.4,0.9,0.6c0.3,0.2,0.7,0.3,1,0.4c0.4,0.1,0.8,0.2,1.2,0.4c0.4,0.1,0.9,0.3,1.2,0.7
							c0.4,0.4,0.5,0.9,0.6,1.3c0.1,0.5,0.1,0.9,0.1,1.3c0,0.2,0,0.4,0,0.6v0.1v0.1l0,0V27c0,0,0.1,0.1,0.3,0.2
							c0.1,0,0.2,0.1,0.3,0.1c0.1,0.1,0.2,0.1,0.4,0.3c0.1,0.1,0.1,0.2,0.2,0.3c0,0.1,0.1,0.2,0.1,0.3v0.1v0.1v0.1v0.1
							c-0.1,0.2-0.1,0.4-0.2,0.6c-0.2,0.4-0.4,0.8-0.8,1.1c-0.2,0.2-0.4,0.3-0.6,0.4s-0.5,0.1-0.7,0.2C17.6,31,17.2,31,16.8,31
							c-0.4,0-0.8,0.1-1.1,0.2l0,0c-0.2,0-0.4-0.1-0.4-0.3c0-0.2,0.1-0.4,0.2-0.4c0.8-0.3,1.6-0.4,2.3-0.5c0.3-0.1,0.6-0.2,0.8-0.4
							c0.2-0.2,0.4-0.5,0.5-0.8c0.1-0.2,0.1-0.3,0.2-0.5c0,0,0,0,0-0.1l0,0l0,0l0,0v0.1c0,0,0,0-0.1-0.1c-0.1,0-0.2-0.1-0.3-0.1
							c-0.1-0.1-0.2-0.1-0.3-0.2c-0.1-0.1-0.2-0.2-0.3-0.3c-0.1-0.1-0.2-0.3-0.2-0.5V27v-0.1c0-0.1,0-0.1,0-0.2c0-0.2,0-0.4,0-0.6
							c0-0.4,0-0.8,0-1.1c0-0.3-0.1-0.6-0.3-0.8c-0.2-0.2-0.5-0.4-0.8-0.5c-0.7-0.2-1.5-0.4-2.3-0.8c-0.4-0.2-0.8-0.5-1.1-0.8
							S13,21.4,12.8,21s-0.4-0.8-0.4-1.3c0-0.2,0-0.4,0-0.7c0-0.1,0-0.2,0-0.3c0-0.1,0-0.1,0-0.2s0-0.1,0-0.2l0.7,0.4l-2,2.1l-1,1.1
							l-0.5,0.5c-0.2,0.2-0.3,0.4-0.5,0.5C8,24.4,6.9,26.1,7,28c0,0.9,0.2,1.9,0.5,2.8s0.8,1.7,1.3,2.5c0.6,0.8,1.2,1.5,2,2
							c0.4,0.3,0.8,0.6,1.2,0.8c0.2,0.1,0.4,0.2,0.7,0.3C12.8,36.8,13,36.8,13.3,36.8z"/>
					</g>
					<g>
						<path class="st0" d="M13.7,20.6c0.2-0.4,0.5-0.7,0.8-1c0.1-0.2,0.3-0.3,0.5-0.5c0.1-0.1,0.2-0.1,0.3-0.2c0,0,0.1-0.1,0.2-0.1
							s0.1-0.1,0.2-0.1l0,0l0,0c0.1,0,0.3,0.1,0.3,0.2s0,0.1,0,0.2c-0.1,0.2-0.2,0.5-0.3,0.7c-0.1,0.3-0.1,0.5-0.2,0.8
							c0,0.3,0,0.5,0,0.8c0.1,0.3,0.2,0.5,0.3,0.8c-0.2-0.2-0.4-0.4-0.5-0.7c0-0.3-0.1-0.6-0.1-0.9s0-0.6,0-0.9s0.1-0.6,0.2-0.9
							l0.3,0.4l0,0h-0.1h-0.1c-0.1,0-0.2,0.1-0.3,0.1c-0.2,0.1-0.3,0.2-0.5,0.3C14.4,20,14.1,20.3,13.7,20.6z"/>
					</g>
					<g>
						<g>
							<path class="st0" d="M15.9,28.1l-2.8-1.8l3,1.5c0.1,0,0.1,0.2,0.1,0.2C16.1,28.1,16,28.1,15.9,28.1L15.9,28.1z"/>
						</g>
						<g>
							<path class="st0" d="M15.8,28.6l-3.3-1.2l3.4,0.9c0.1,0,0.2,0.1,0.1,0.2C16,28.6,15.9,28.7,15.8,28.6L15.8,28.6z"/>
						</g>
						<g>
							<path class="st0" d="M15.8,29.2l-3.2-0.3h3.2c0.1,0,0.2,0.1,0.2,0.2C16,29.2,15.9,29.2,15.8,29.2L15.8,29.2z"/>
						</g>
					</g>
					<g>
						<g>
							<path class="st0" d="M20.4,30l2.6,2.1l-2.8-1.9c-0.1-0.1-0.1-0.2-0.1-0.2C20.2,29.9,20.3,29.9,20.4,30L20.4,30z"/>
						</g>
						<g>
							<path class="st0" d="M20.5,29.4l3.2,1.5l-3.3-1.2c-0.1,0-0.1-0.1-0.1-0.2S20.4,29.4,20.5,29.4L20.5,29.4z"/>
						</g>
						<g>
							<path class="st0" d="M20.5,28.8l3.1,0.7l-3.2-0.3c-0.1,0-0.2-0.1-0.2-0.2C20.3,28.9,20.4,28.8,20.5,28.8L20.5,28.8z"/>
						</g>
					</g>
				</g>
			</g>
			<g>
				<g>
					<g>
						<path class="st0" d="M54.5,38c0-0.6,0.1-1.1,0.1-1.7c0.1-0.6,0.1-1.1,0.2-1.7c0.1-0.6,0.1-1.1,0.2-1.7l0.3-1.7v-0.1l0,0l0,0
							l0,0l0,0V31c0-0.1-0.1-0.1-0.2-0.2c-0.2-0.1-0.4-0.2-0.7-0.3c-0.5-0.2-1.1-0.2-1.7-0.3c-0.3-0.1-0.6-0.1-0.9-0.2
							c-0.3-0.1-0.6-0.3-0.9-0.5c-0.5-0.4-0.9-1-1.1-1.6l0,0l-0.4-0.7l-0.2-0.1c0-0.1,0-0.1-0.1-0.1c0-0.1,0-0.2-0.1-0.3
							c0-0.2,0-0.4,0.1-0.6c0-0.1,0.1-0.2,0.1-0.2c0.1-0.1,0.1-0.1,0.2-0.2c0.1-0.1,0.3-0.2,0.4-0.3c0.1,0,0.1-0.1,0.2-0.1l0.2-0.1
							c0.1-0.1,0.2-0.1,0.4-0.1c0.5-0.2,1-0.3,1.4-0.5s0.6-0.6,0.9-1c0.3-0.4,0.6-0.9,1-1.3s0.8-0.7,1.3-0.9c0.5-0.2,1-0.4,1.6-0.4
							c0.5-0.1,1.1,0,1.6,0.2s1,0.4,1.5,0.7c0.4,0.3,0.8,0.8,1.1,1.2l0.2,0.3c0.1,0.1,0.1,0.2,0.2,0.4l0.1,0.2l0.1,0.2l0.1,0.4
							c0.1,0.3,0.2,0.5,0.2,0.8l0.2,0.8c0.2,1,0.5,1.9,1,2.8c0.2,0.5,0.5,0.9,0.8,1.3s0.6,0.8,1,1.2c-0.4-0.3-0.8-0.7-1.1-1.1
							c-0.3-0.4-0.6-0.8-0.9-1.3c-0.5-0.9-0.9-1.9-1.1-2.9l-0.2-0.7c-0.1-0.2-0.1-0.5-0.2-0.7l-0.1-0.3l-0.1-0.2l-0.1-0.2
							C61,24,61,23.9,60.9,23.8l-0.2-0.3c-0.3-0.4-0.6-0.8-1-1c-0.4-0.3-0.8-0.5-1.3-0.6c-0.5-0.3-1-0.3-1.4-0.3
							c-0.5,0.1-0.9,0.2-1.4,0.4c-0.4,0.2-0.8,0.5-1.1,0.8s-0.6,0.7-0.9,1.2c-0.1,0.2-0.3,0.5-0.5,0.7s-0.4,0.4-0.7,0.6
							s-0.5,0.3-0.8,0.3l-0.7,0.2c-0.1,0-0.2,0.1-0.3,0.1L50.4,26c0,0-0.1,0-0.1,0.1c-0.2,0.1-0.3,0.2-0.4,0.4c0,0.1,0,0.1,0,0.2
							v0.1l0,0v0.1l0.4,0.7l0,0l0,0c0.2,0.5,0.5,1,0.9,1.3c0.2,0.2,0.4,0.3,0.7,0.4s0.5,0.2,0.8,0.2c0.6,0.1,1.2,0.2,1.8,0.4
							c0.3,0.1,0.6,0.2,0.9,0.4c0.1,0.1,0.3,0.2,0.4,0.5c0.1,0.1,0.1,0.2,0.1,0.3c0,0.1,0,0.1,0,0.2v0.1c0,0,0,0,0,0.1
							c0,0,0,0,0,0.1v-0.1l-0.3,1.7c-0.1,0.6-0.2,1.1-0.3,1.7c-0.1,0.6-0.2,1.1-0.4,1.7C54.8,36.9,54.7,37.5,54.5,38z"/>
					</g>
					<g>
						<path class="st0" d="M56.7,23.3c0.1,0.5,0.2,1,0.4,1.4c0.2,0.5,0.3,0.9,0.6,1.3c0.1,0.2,0.3,0.3,0.5,0.4s0.4,0.1,0.6,0
							c0.4-0.1,0.9-0.3,1.3-0.6c-0.3,0.4-0.7,0.8-1.2,1c-0.3,0.1-0.6,0.1-0.9,0c-0.3-0.1-0.5-0.3-0.7-0.5s-0.3-0.5-0.4-0.7
							c-0.1-0.2-0.2-0.5-0.2-0.8C56.6,24.3,56.6,23.8,56.7,23.3z"/>
					</g>
					<g>
						<circle class="st0" cx="54.7" cy="24.7" r="0.5"/>
					</g>
				</g>
			</g>
			<g>
				<path class="st0" d="M24.2,27c-0.7-0.6-1.2-1.3-1.7-2.1c-0.2-0.4-0.5-0.8-0.6-1.2c-0.2-0.4-0.4-0.8-0.5-1.3
					c-0.6-1.7-0.7-3.6-0.3-5.4c0.1-0.4,0.2-0.9,0.4-1.3c0.1-0.4,0.3-0.8,0.5-1.3c0.4-0.8,0.8-1.6,1.4-2.3s1.2-1.4,2-1.8
					c0.4-0.2,0.9-0.4,1.3-0.5c0.5-0.1,0.9-0.1,1.4,0H28l0,0c0.1-0.5,0.3-0.9,0.4-1.4c0.1-0.2,0.2-0.5,0.3-0.7
					c0.1-0.1,0.1-0.2,0.2-0.4c0-0.1,0.1-0.1,0.1-0.2C29.1,7,29.1,7,29.2,6.9c0.2-0.1,0.5-0.1,0.6,0.1l0,0v0.1l0,0
					c0.1,0.3,0.2,0.5,0.3,0.8c0.1,0.4,0.2,0.7,0.2,0.9c0.1,0.3,0.1,0.5,0.1,0.8s0,0.6,0,0.9l-0.8-0.4l2.1-2.3l0,0
					c0.2-0.2,0.5-0.2,0.7,0c0.1,0.1,0.1,0.2,0.1,0.3c0,0.2,0.1,0.3,0.1,0.5s0,0.3,0,0.5c0,0.3,0,0.7,0,1s-0.1,0.7-0.3,1
					c-0.1,0.3-0.4,0.6-0.6,0.9l0.2-0.4c0,0.2,0.1,0.4,0.1,0.5c0,0.2,0.1,0.4,0.1,0.5c0.1,0.2,0.1,0.3,0.2,0.5
					c0.1,0.1,0.2,0.3,0.2,0.3l0,0c0.1,0.1,0.2,0.2,0.2,0.3c0,0.2,0,0.4,0,0.6c0,0.2,0,0.4,0,0.6c0,0.4-0.1,0.8-0.3,1.3V16
					c0,0.6,0.1,1.2,0.2,1.8c0,0.3,0.1,0.6,0.2,0.9c0.1,0.3,0.2,0.6,0.3,0.8c0,0.1,0.1,0.1,0.1,0.2l0.1,0.2c0.1,0.2,0.2,0.4,0.2,0.6
					c0.1,0.4,0.1,0.8,0,1.1c-0.1,0.3-0.1,0.7-0.2,1c-0.1,0.3-0.2,0.6-0.4,0.9c0,0.1-0.1,0.1-0.1,0.2l0,0l0,0c-0.1,0-0.1,0.1-0.2,0.1
					c-0.1,0-0.1,0-0.2,0.1c-0.1,0-0.2,0.1-0.3,0.1c-0.2,0.1-0.5,0.1-0.7,0.1c-0.5,0-0.9-0.1-1.3-0.4c0.4,0.1,0.8,0,1.2-0.1
					c0.2-0.1,0.4-0.2,0.5-0.3c0.1-0.1,0.2-0.1,0.2-0.2l0.1-0.1l0.1-0.1l0,0l-0.1,0.2c0.2-0.5,0.4-1.1,0.5-1.7c0-0.3,0-0.5,0-0.8
					c0-0.1-0.1-0.2-0.1-0.3l-0.1-0.2c-0.1-0.1-0.1-0.2-0.1-0.3c-0.2-0.3-0.3-0.7-0.3-1c-0.1-0.3-0.1-0.6-0.2-1
					c-0.1-0.6-0.2-1.3-0.2-1.9c0-0.1,0-0.1,0-0.2l0,0c0.1-0.3,0.2-0.6,0.2-1c0-0.2,0-0.4,0-0.5c0-0.2,0-0.4,0-0.5L32,14
					c-0.2-0.2-0.4-0.4-0.5-0.6c-0.1-0.2-0.2-0.4-0.3-0.6c-0.1-0.2-0.1-0.4-0.2-0.6c0-0.2-0.1-0.4-0.1-0.6c0-0.2,0-0.3,0.2-0.4l0,0
					c0.2-0.1,0.3-0.3,0.4-0.6c0.1-0.2,0.2-0.5,0.2-0.7c0-0.3,0-0.5,0-0.8s0-0.6-0.1-0.8l0.8,0.2l-2.1,2.3l0,0
					c-0.2,0.2-0.5,0.2-0.7,0c-0.1-0.1-0.2-0.3-0.1-0.5c0-0.1,0-0.4,0-0.6c0-0.2-0.1-0.5-0.1-0.7c0-0.2-0.1-0.4-0.2-0.7
					c0-0.2-0.1-0.4-0.2-0.7l0,0l0.7,0.2l0,0l-0.1,0.1c-0.1,0.1-0.1,0.2-0.2,0.2c-0.2,0.3-0.4,0.5-0.5,0.7c-0.3,0.4-0.5,0.8-0.8,1.2
					l0,0c0,0,0,0.1-0.1,0l0,0c-0.4,0-0.9,0-1.3,0.2c-0.4,0.1-0.8,0.3-1.1,0.5c-0.7,0.5-1.3,1.1-1.8,1.8s-0.9,1.5-1.3,2.3
					c-0.2,0.4-0.3,0.8-0.5,1.2c-0.1,0.4-0.3,0.8-0.4,1.2c0,0.2-0.1,0.4-0.1,0.6l-0.1,0.3v0.3c-0.1,0.4-0.1,0.9-0.1,1.3
					c0,0.9,0.1,1.7,0.4,2.6c0.2,0.8,0.6,1.7,1,2.4C23.1,25.6,23.6,26.3,24.2,27z"/>
			</g>
			<g>
				<g>
					<g>
						<path class="st0" d="M38.6,16.9c0.3,1.2,0.8,2.4,1.3,3.5c0.3,0.6,0.6,1.1,1,1.6c0.2,0.2,0.4,0.5,0.6,0.7
							c0.2,0.2,0.5,0.4,0.7,0.6s0.5,0.3,0.8,0.4s0.6,0.2,0.8,0.3c0.6,0.1,1.1,0.1,1.7-0.1c0.6-0.2,1.1-0.5,1.5-0.9
							c0.2-0.2,0.5-0.4,0.7-0.6s0.4-0.4,0.6-0.7v0.5c-0.3-0.5-0.6-1-0.8-1.6c-0.2-0.5-0.5-1.1-0.7-1.6c-0.4-1.1-0.6-2.3-0.5-3.6
							c0.1-0.6,0.3-1.2,0.6-1.8s0.8-1,1.4-1.3c0.1-0.1,0.3-0.1,0.4-0.2c0.1-0.1,0.3-0.1,0.4-0.2c0.1-0.1,0.3-0.1,0.4-0.2l0.4-0.1
							c0.1,0,0.3-0.1,0.4-0.1l0.4-0.1c0.3,0,0.6-0.1,0.9-0.1c0.2,0,0.5,0.2,0.5,0.4v0.1l0,0v0.1V12c0,0.1,0,0.1,0,0.2
							c0,0.1-0.1,0.2-0.1,0.4c-0.1,0.2-0.2,0.5-0.4,0.7c-0.3,0.4-0.7,0.8-1.2,1l-0.2,0.1c-0.1,0-0.2,0.1-0.4,0.1h-0.2
							c-0.1,0-0.1,0-0.2,0H49c-0.2,0-0.5,0-0.7,0l-0.7-0.1h0.3l0,0c-0.1,0-0.1,0-0.1,0s0,0-0.1,0s-0.1,0-0.1,0c-0.1,0-0.2,0-0.2,0
							c-0.1,0-0.1,0-0.2-0.1c-0.1,0-0.1-0.1-0.1-0.1c-0.2-0.1-0.3-0.3-0.4-0.4c-0.2-0.3-0.4-0.6-0.5-0.9c-0.1-0.3-0.2-0.6-0.3-0.9
							c-0.1-0.2-0.1-0.3-0.2-0.4c0-0.1-0.1-0.1-0.1-0.2l-0.1-0.2c-0.3-0.5-0.8-0.9-1.4-1.1c-0.6-0.2-1.2-0.3-1.9-0.2
							c0.6-0.2,1.3-0.2,2,0c0.6,0.2,1.3,0.5,1.7,1.1l0.1,0.2c0.1,0.1,0.1,0.1,0.1,0.2c0.1,0.2,0.2,0.3,0.2,0.5
							c0.1,0.3,0.3,0.6,0.4,0.8c0.1,0.3,0.3,0.5,0.5,0.7c0.1,0.1,0.2,0.2,0.3,0.2c0,0,0,0,0.1,0l0,0l0,0l0,0l0,0c0,0,0,0-0.1,0l0,0
							h0.3l0.6,0.1c0.2,0,0.4,0,0.6,0h0.3h0.1h0.1c0.1,0,0.2,0,0.3-0.1l0.3-0.1c0.3-0.2,0.6-0.4,0.8-0.7c0.1-0.1,0.2-0.3,0.3-0.5
							c0-0.1,0.1-0.2,0.1-0.3s0-0.2,0-0.2l0.5,0.5c-1.1,0.1-2.2,0.3-3.1,0.8c-0.4,0.3-0.8,0.6-1.1,1c-0.1,0.5-0.3,1-0.4,1.5
							s0,1,0,1.6c0.1,0.5,0.2,1.1,0.4,1.6c0.3,1,0.8,2.1,1.4,3l0,0c0.1,0.2,0.1,0.3,0,0.5c-0.2,0.3-0.4,0.5-0.7,0.7
							c-0.2,0.2-0.5,0.4-0.8,0.6c-0.5,0.4-1.1,0.7-1.8,0.9c-0.7,0.2-1.4,0.2-2.1,0.1c-0.3-0.1-0.7-0.2-1-0.4
							c-0.3-0.2-0.6-0.3-0.9-0.5c-0.5-0.4-1-0.9-1.4-1.4s-0.7-1.1-0.9-1.7C39,19.4,38.7,18.2,38.6,16.9z"/>
					</g>
					<g>
						<path class="st0" d="M41.2,11.8c-0.3-0.4-0.7-0.8-1.1-1.2c-0.4-0.4-0.9-0.7-1.3-0.9c-0.2-0.1-0.5-0.2-0.7-0.3l-0.4-0.1
							c-0.1,0-0.3-0.1-0.4-0.1c-0.5-0.1-1-0.1-1.5-0.1l0.4-0.3l0,0c0,0.2,0,0.5,0,0.8s0,0.5,0.1,0.8c0.1,0.5,0.3,1.1,0.6,1.5
							s0.8,0.8,1.3,0.9c0.5,0.2,1.1,0.2,1.7,0.2c-0.6,0.1-1.2,0.1-1.7,0c-0.6-0.1-1.1-0.4-1.6-0.9c-0.4-0.4-0.7-1-0.9-1.6
							c-0.1-0.3-0.2-0.6-0.2-0.9c0-0.3-0.1-0.6-0.1-0.9l0,0l0,0c0-0.2,0.2-0.3,0.4-0.3c0.6,0,1.2,0.1,1.7,0.3c0.1,0,0.3,0.1,0.4,0.1
							L38.2,9c0.2,0.1,0.5,0.3,0.7,0.4c0.5,0.3,0.9,0.7,1.3,1.1C40.6,10.9,41,11.4,41.2,11.8z"/>
					</g>
				</g>
			</g>
		</g>
		<g>
			<path class="st0" d="M30.6,52.5c-0.6,0.3-1.2,0.6-1.8,0.8c-0.7,0.2-1.3,0.2-2,0.2c-1.3,0-2.7-0.3-3.9-0.9
				c-1.2-0.6-2.2-1.6-2.8-2.9c-0.6-1.2-0.8-2.6-0.8-4l0,0c-0.2-1.6,0.3-3.1,1.2-4.4c0.9-1.3,2-2.3,3.1-3.3s2-2.1,2.8-3.3
				c0.8-1.3,1.7-2.5,2.9-3.6c1.2-1,2.5-1.8,4.1-2.2c1.5-0.4,3.1-0.4,4.7,0c1.5,0.4,2.9,1.2,4,2.3c1.1,1.1,2,2.3,2.9,3.5
				s1.9,2.2,2.9,3.3s2.2,2,3,3.4c0.8,1.3,1.3,2.9,1.3,4.5s-0.6,3.1-1.3,4.4c-0.8,1.4-2.1,2.4-3.6,2.9s-3.1,0.5-4.6,0.2
				c-0.7-0.2-1.5-0.4-2.2-0.6c-0.7-0.2-1.4-0.6-2-1c-1.3-0.6-2.8-1-4.3-0.7c1.4-0.5,3-0.2,4.4,0.3c0.7,0.3,1.4,0.6,2.1,0.8
				c0.7,0.2,1.4,0.4,2.1,0.5c1.4,0.3,2.9,0.2,4.2-0.3s2.5-1.4,3.1-2.6c0.7-1.3,1.1-2.7,1.2-4.1c0-1.4-0.4-2.8-1.2-4
				c-0.7-1.2-1.9-2.1-2.9-3.2c-1-1.1-2.1-2.2-3-3.4s-1.7-2.4-2.8-3.4c-1-1-2.3-1.7-3.6-2.1c-1.4-0.4-2.8-0.4-4.2,0s-2.6,1.1-3.7,2
				c-1.1,0.9-2,2.1-2.8,3.3c-0.8,1.3-1.8,2.5-3,3.5c-1.1,1-2.2,2-3,3.1c-0.8,1.2-1.3,2.6-1.2,4l0,0l0,0c0,1.3,0.1,2.6,0.7,3.7
				c0.5,1.2,1.5,2.1,2.6,2.7c1.1,0.6,2.4,0.9,3.7,1c0.7,0,1.3,0,1.9-0.1C29.4,53,30,52.7,30.6,52.5z"/>
		</g>
	</g>
</g>
</svg>
