<?xml version="1.0" encoding="utf-8"?>
<!-- Generator: Adobe Illustrator 23.0.2, SVG Export Plug-In . SVG Version: 6.00 Build 0)  -->
<svg version="1.1" id="Capa_1" xmlns="http://www.w3.org/2000/svg" xmlns:xlink="http://www.w3.org/1999/xlink" x="0px" y="0px"
	 viewBox="0 0 500 500" style="enable-background:new 0 0 500 500;" xml:space="preserve">
<style type="text/css">
	.st0{fill:#FFFFFF;}
</style>
<g>
	<g>
		<path class="st0" d="M125.5,311.1v9.4H139v3.3h-13.5v10.9h-3.8v-26.9h19v3.3H125.5z"/>
		<path class="st0" d="M170.8,314.3v20.4h-3.5v-3.1c-1.5,2.1-4,3.3-6.9,3.3c-5.3,0-8.8-2.9-8.8-8.9v-11.7h3.7v11.3c0,4,2,6,5.5,6
			c3.8,0,6.3-2.4,6.3-6.8v-10.5H170.8z"/>
		<path class="st0" d="M204.1,322.9v11.7h-3.7v-11.3c0-4-2-6-5.5-6c-3.9,0-6.5,2.3-6.5,6.8v10.5h-3.7v-20.4h3.5v3.1
			c1.5-2.1,4.1-3.3,7.3-3.3C200.6,314.1,204.1,316.9,204.1,322.9z"/>
		<path class="st0" d="M237.2,306.1v28.5h-3.5v-3.2c-1.7,2.3-4.3,3.5-7.3,3.5c-6,0-10.3-4.2-10.3-10.4s4.3-10.4,10.3-10.4
			c2.9,0,5.4,1.1,7.1,3.3v-11.2H237.2z M233.5,324.5c0-4.3-3-7.2-6.8-7.2c-3.9,0-6.9,2.8-6.9,7.2c0,4.3,3,7.2,6.9,7.2
			C230.6,331.7,233.5,328.8,233.5,324.5z"/>
		<path class="st0" d="M267.3,322.4v12.3h-3.5V332c-1.2,1.8-3.5,2.9-6.7,2.9c-4.6,0-7.5-2.5-7.5-6c0-3.3,2.1-6,8.2-6h5.8v-0.7
			c0-3.1-1.8-4.9-5.5-4.9c-2.4,0-4.9,0.8-6.5,2.2l-1.5-2.8c2.1-1.7,5.2-2.6,8.4-2.6C264.1,314.1,267.3,316.8,267.3,322.4z
			 M263.6,328.4v-2.8h-5.7c-3.7,0-4.7,1.4-4.7,3.2c0,2,1.7,3.3,4.5,3.3C260.5,332.1,262.7,330.8,263.6,328.4z"/>
		<path class="st0" d="M279.3,324.5c0-6.1,4.5-10.4,10.8-10.4c3.7,0,6.7,1.5,8.3,4.3l-2.8,1.8c-1.3-2-3.3-2.9-5.5-2.9
			c-4,0-7,2.8-7,7.2c0,4.4,3,7.2,7,7.2c2.2,0,4.2-0.9,5.5-2.9l2.8,1.8c-1.6,2.8-4.7,4.4-8.3,4.4
			C283.8,334.9,279.3,330.6,279.3,324.5z"/>
		<path class="st0" d="M309.4,308c0-1.3,1.1-2.4,2.5-2.4s2.5,1,2.5,2.3c0,1.4-1,2.5-2.5,2.5C310.4,310.4,309.4,309.3,309.4,308z
			 M310,314.3h3.7v20.4H310V314.3z"/>
		<path class="st0" d="M325.8,324.5c0-6.1,4.5-10.4,10.6-10.4c6.1,0,10.6,4.3,10.6,10.4s-4.5,10.4-10.6,10.4
			C330.3,334.9,325.8,330.6,325.8,324.5z M343.3,324.5c0-4.3-2.9-7.2-6.8-7.2s-6.9,2.8-6.9,7.2c0,4.3,3,7.2,6.9,7.2
			S343.3,328.8,343.3,324.5z M338.7,306.3h4.7l-6.5,5h-3.5L338.7,306.3z"/>
		<path class="st0" d="M378.4,322.9v11.7h-3.7v-11.3c0-4-2-6-5.5-6c-3.9,0-6.5,2.3-6.5,6.8v10.5H359v-20.4h3.5v3.1
			c1.5-2.1,4.1-3.3,7.3-3.3C374.9,314.1,378.4,316.9,378.4,322.9z"/>
	</g>
	<g>
		<path class="st0" d="M112.3,392.7v14.8h-52v-11.7l25.9-30.1H61.1v-14.8H111v11.7l-25.9,30.1H112.3z"/>
		<path class="st0" d="M113.5,379.2c0-17.1,13.5-29.6,31.9-29.6c18.4,0,31.9,12.5,31.9,29.6c0,17.1-13.5,29.6-31.9,29.6
			C127.1,408.8,113.5,396.4,113.5,379.2z M158.2,379.2c0-8.8-5.7-14.2-12.7-14.2c-7,0-12.7,5.3-12.7,14.2c0,8.8,5.7,14.2,12.7,14.2
			C152.5,393.4,158.2,388,158.2,379.2z"/>
		<path class="st0" d="M180.5,379.2c0-17.1,13.5-29.6,31.9-29.6c18.4,0,31.9,12.5,31.9,29.6c0,17.1-13.5,29.6-31.9,29.6
			C194,408.8,180.5,396.4,180.5,379.2z M225.2,379.2c0-8.8-5.7-14.2-12.7-14.2c-7,0-12.7,5.3-12.7,14.2c0,8.8,5.7,14.2,12.7,14.2
			C219.5,393.4,225.2,388,225.2,379.2z"/>
		<path class="st0" d="M300.3,407.5l-0.2-25.8l-12.3,20.7h-8.4l-12.3-19.8v24.9h-17.4v-56.6h15.7l18.4,30.2l18-30.2h15.7l0.2,56.6
			H300.3z"/>
		<path class="st0" d="M323,379.2c0-17.1,13.5-29.6,31.9-29.6c18.4,0,31.9,12.5,31.9,29.6c0,17.1-13.5,29.6-31.9,29.6
			C336.5,408.8,323,396.4,323,379.2z M367.7,379.2c0-8.8-5.7-14.2-12.7-14.2c-7,0-12.7,5.3-12.7,14.2c0,8.8,5.7,14.2,12.7,14.2
			C362,393.4,367.7,388,367.7,379.2z"/>
		<path class="st0" d="M388.7,403l6.1-13.9c5.3,3.2,12.5,5.2,18.7,5.2c5.4,0,7.4-1.1,7.4-3.1c0-7.1-31.3-1.4-31.3-22.5
			c0-10.5,8.8-19.1,26.4-19.1c7.6,0,15.4,1.6,21.4,4.9l-5.7,13.8c-5.6-2.8-10.8-4.2-15.8-4.2c-5.6,0-7.4,1.6-7.4,3.6
			c0,6.8,31.3,1.1,31.3,22c0,10.4-8.8,19.1-26.4,19.1C403.9,408.8,394.4,406.5,388.7,403z"/>
	</g>
	<g>
		<path class="st0" d="M111.4,438.6h-6.6l-1.2,3h-6l7.6-17.5h5.8l7.6,17.5h-6.1L111.4,438.6z M109.8,434.4l-1.7-4.4l-1.7,4.4H109.8z
			"/>
		<path class="st0" d="M135.1,424.2h5.9v12.9h7.9v4.6h-13.8V424.2z"/>
		<path class="st0" d="M196.5,437.3h-1.6v4.4H189v-17.5h8.4c4.9,0,8,2.5,8,6.6c0,2.5-1.2,4.4-3.3,5.5l3.7,5.4h-6.3L196.5,437.3z
			 M197.1,428.7h-2.1v4.1h2.1c1.6,0,2.4-0.8,2.4-2S198.7,428.7,197.1,428.7z"/>
		<path class="st0" d="M237.7,437.2v4.4h-14.5v-17.5h14.2v4.4H229v2h7.4v4.2H229v2.3H237.7z"/>
		<path class="st0" d="M254.4,440.3l1.9-4.3c1.6,1,3.8,1.6,5.8,1.6c1.7,0,2.3-0.4,2.3-1c0-2.2-9.7-0.4-9.7-6.9
			c0-3.2,2.7-5.9,8.1-5.9c2.3,0,4.8,0.5,6.6,1.5l-1.8,4.3c-1.7-0.9-3.3-1.3-4.9-1.3c-1.7,0-2.3,0.5-2.3,1.1c0,2.1,9.7,0.3,9.7,6.8
			c0,3.2-2.7,5.9-8.1,5.9C259.1,442.1,256.1,441.4,254.4,440.3z"/>
		<path class="st0" d="M286.7,432.9c0-5.4,4.1-9.1,9.7-9.1c3.4,0,6.1,1.3,7.8,3.5l-3.7,3.3c-1-1.3-2.3-2-3.8-2
			c-2.4,0-4.1,1.7-4.1,4.4c0,2.7,1.6,4.4,4.1,4.4c1.6,0,2.8-0.8,3.8-2l3.7,3.3c-1.7,2.3-4.4,3.5-7.8,3.5
			C290.8,442.1,286.7,438.3,286.7,432.9z"/>
		<path class="st0" d="M333.2,438.6h-6.6l-1.2,3h-6l7.6-17.5h5.8l7.6,17.5h-6.1L333.2,438.6z M331.6,434.4l-1.7-4.4l-1.7,4.4H331.6z
			"/>
		<path class="st0" d="M359.8,428.8h-5.1v-4.6h16.1v4.6h-5.1v12.9h-5.9V428.8z"/>
		<path class="st0" d="M402.4,437.2v4.4h-14.5v-17.5h14.2v4.4h-8.4v2h7.4v4.2h-7.4v2.3H402.4z"/>
	</g>
	<g>
		<g>
			<g>
				<path class="st0" d="M145.6,197.4c-1.1,0.1-2.3-0.2-3.3-0.5c-1.1-0.3-2.1-0.7-3.2-1.2c-2.1-1-4-2.1-5.9-3.4
					c-3.7-2.6-7.1-5.7-10-9.3c-2.9-3.6-5.3-7.5-6.9-11.8c-0.8-2.1-1.5-4.4-2-6.6c-0.5-2.2-0.9-4.5-1-6.9c-0.1-2.3,0-4.7,0.5-7
					c0.5-2.3,1.3-4.5,2.2-6.7c0.9-2.1,2-4.2,3.2-6.1c0.6-1,1.2-2,1.8-2.9l0.9-1.5l0.5-0.7l0.2-0.4l0.3-0.4c0.8-1,1.5-1.8,2.2-2.7
					l2.2-2.6l4.4-5.2l8.8-10.3c0.7-0.8,1.9-0.9,2.7-0.2c0.5,0.5,0.8,1.2,0.6,1.9l0,0.2c0,0.1-0.1,0.3-0.1,0.5c0,0.2-0.1,0.4-0.1,0.6
					c0,0.4-0.1,0.8-0.1,1.2c0,0.8,0.1,1.6,0.2,2.4c0.3,1.6,0.8,3.2,1.6,4.6c0.8,1.4,1.9,2.7,3.1,3.9c1.2,1.2,2.5,2.1,4,2.8
					c1.5,0.8,3.1,1.4,4.8,1.9c1.7,0.5,3.5,1,5.4,1.6c1.9,0.7,4,1.6,5.7,3.4c1.7,1.8,2.5,4.2,2.8,6.3c0.3,2.1,0.3,4.1,0.3,5.9
					c0,0.9,0,1.8,0.1,2.6c0,0.2,0,0.4,0.1,0.6l0,0.3l0,0.2c0,0.2,0.1,0.3,0.2,0.4c0.1,0.2,0.5,0.5,1.2,0.9c0.4,0.2,0.8,0.4,1.3,0.6
					c0.5,0.3,1.2,0.6,1.8,1.4c0.3,0.4,0.6,0.9,0.8,1.4c0.2,0.5,0.3,1,0.3,1.5c0,0.2,0,0.4,0,0.7c0,0.2-0.1,0.4-0.1,0.6l-0.1,0.5
					c0,0.2-0.1,0.3-0.1,0.4c-0.3,0.9-0.7,1.9-1.1,2.8c-0.9,1.9-2,3.8-3.8,5.4c-0.9,0.8-1.9,1.4-3,1.8c-1.1,0.4-2.1,0.7-3.1,0.9
					c-2,0.4-3.9,0.5-5.7,0.6c-1.8,0.2-3.6,0.4-5.3,0.7l0,0c-0.9,0.2-1.8-0.4-2-1.4c-0.2-0.8,0.3-1.6,1.1-1.9c3.7-1.3,7.7-1.7,11-2.5
					c1.6-0.4,2.9-0.9,3.9-1.9c1-0.9,1.8-2.2,2.5-3.8c0.3-0.8,0.6-1.6,0.9-2.4c0-0.1,0.1-0.2,0.1-0.3l0-0.2c0,0,0-0.1,0-0.1
					c0,0,0,0,0,0c0,0,0.1,0.3,0.1,0.3c0.1,0-0.1-0.1-0.4-0.3c-0.3-0.2-0.7-0.4-1.2-0.6c-0.5-0.2-1-0.5-1.6-0.9
					c-0.6-0.4-1.1-1-1.6-1.6c-0.4-0.7-0.7-1.4-0.9-2.1l-0.1-0.5l0-0.4c0-0.3-0.1-0.5-0.1-0.8c-0.1-1-0.1-2-0.1-3
					c0-1.9,0-3.7-0.2-5.3c-0.2-1.6-0.7-2.8-1.6-3.8c-0.9-1-2.2-1.7-3.8-2.3c-3.2-1.2-7.1-2-10.8-3.9c-1.8-1-3.5-2.2-5-3.7
					c-1.5-1.4-2.7-3.1-3.7-4.9c-1-1.8-1.7-3.9-2-5.9c-0.1-1-0.2-2.1-0.2-3.1c0-0.5,0.1-1,0.1-1.6c0-0.3,0.1-0.5,0.1-0.8
					c0.1-0.3,0.1-0.5,0.2-0.9l3.3,1.8l-9.1,10l-4.5,5l-2.2,2.5c-0.7,0.8-1.5,1.7-2.2,2.5c-4.9,7.2-10.2,15.1-9.8,23.9
					c0.1,4.4,1.1,8.8,2.5,13c1.4,4.2,3.6,8.1,6.2,11.7c2.7,3.6,5.8,6.8,9.4,9.5c1.8,1.4,3.7,2.6,5.7,3.6c1,0.5,2,1,3.1,1.3
					C143.3,197.2,144.4,197.4,145.6,197.4z"/>
				<path class="st0" d="M147.9,121.4c1.2-1.6,2.4-3.2,3.7-4.8c0.7-0.8,1.4-1.5,2.2-2.2c0.4-0.3,0.8-0.7,1.3-1
					c0.2-0.2,0.5-0.3,0.8-0.5c0.3-0.1,0.6-0.2,1-0.4l0,0l0.1,0c0.6-0.1,1.3,0.3,1.4,1c0,0.3,0,0.5-0.1,0.7c-0.5,1.1-1,2.3-1.3,3.5
					c-0.3,1.2-0.6,2.5-0.7,3.7c-0.1,1.3-0.1,2.5,0.1,3.8c0.3,1.2,0.8,2.4,1.5,3.5c-0.9-0.9-1.6-2.1-2.1-3.3c-0.5-1.3-0.7-2.6-0.8-4
					c-0.1-1.4,0-2.7,0.2-4.1c0.2-1.4,0.4-2.7,0.9-4l1.3,1.7v0c-0.2,0-0.3,0-0.5,0.1c-0.2,0.1-0.4,0.1-0.6,0.2
					c-0.4,0.2-0.8,0.4-1.2,0.6c-0.8,0.5-1.6,1-2.4,1.6C150.8,118.8,149.3,120.1,147.9,121.4z"/>
				<g>
					<path class="st0" d="M157.8,156.6l-13.2-8.5l14,7.1c0.4,0.2,0.6,0.7,0.4,1.1S158.3,156.8,157.8,156.6
						C157.9,156.6,157.9,156.6,157.8,156.6z"/>
					<path class="st0" d="M157.4,159.1l-15.6-5.6l16,4c0.4,0.1,0.7,0.6,0.6,1C158.3,159,157.9,159.3,157.4,159.1
						C157.4,159.2,157.4,159.1,157.4,159.1z"/>
					<path class="st0" d="M157.6,162l-15-1.6l15.1,0c0.5,0,0.8,0.4,0.8,0.8C158.5,161.7,158.2,162,157.6,162
						C157.7,162,157.6,162,157.6,162z"/>
				</g>
				<g>
					<path class="st0" d="M178.9,165.4l12.3,9.8l-13.2-8.5c-0.4-0.2-0.5-0.8-0.3-1.1C177.9,165.2,178.4,165.1,178.9,165.4
						C178.9,165.3,178.9,165.3,178.9,165.4z"/>
					<path class="st0" d="M179.6,162.9l14.9,7.1l-15.6-5.6c-0.4-0.2-0.7-0.6-0.5-1.1C178.6,162.9,179.1,162.7,179.6,162.9
						C179.6,162.8,179.6,162.9,179.6,162.9z"/>
					<path class="st0" d="M179.7,160l14.7,3.1l-15-1.5c-0.5,0-0.8-0.4-0.7-0.9C178.7,160.2,179.1,159.9,179.7,160
						C179.6,160,179.6,160,179.7,160z"/>
				</g>
			</g>
		</g>
		<g>
			<g>
				<path class="st0" d="M338.5,202.9c0.1-2.7,0.3-5.3,0.6-7.9c0.3-2.6,0.5-5.3,0.8-7.9c0.3-2.6,0.7-5.2,1-7.9l1.2-7.8l0.1-0.4
					l0,0.1c0,0,0,0,0,0c0,0,0,0,0-0.1c0-0.1,0-0.1,0-0.2c0-0.1-0.1-0.3-0.1-0.4c-0.2-0.3-0.5-0.7-1-1c-0.9-0.6-2.1-1.1-3.3-1.5
					c-2.5-0.7-5.3-1.1-8.2-1.6c-1.4-0.3-2.9-0.6-4.4-1.1c-1.5-0.5-2.9-1.3-4.2-2.3c-2.5-2.1-4.2-4.8-5.4-7.6l0.1,0.2l-1.7-3.1
					l-0.3-0.5c-0.1-0.2-0.2-0.5-0.3-0.7c-0.1-0.4-0.2-0.9-0.2-1.3c-0.1-0.9,0.1-1.8,0.5-2.6c0.2-0.4,0.4-0.7,0.7-1.1
					c0.3-0.3,0.5-0.6,0.8-0.9c0.6-0.5,1.2-0.9,1.8-1.3c0.3-0.2,0.6-0.3,0.9-0.5l0.9-0.4c0.6-0.2,1.2-0.4,1.7-0.6
					c2.3-0.8,4.6-1.4,6.3-2.4c1.7-1,3-2.6,4.3-4.6c1.3-2.1,2.8-4.1,4.7-5.9c1.8-1.8,3.9-3.3,6.3-4.4c2.3-1.1,4.9-1.7,7.4-2
					c2.6-0.3,5.2,0,7.6,0.7c2.5,0.7,4.8,1.9,6.8,3.5c2,1.6,3.7,3.5,5.1,5.6l1,1.6c0.3,0.5,0.6,1.1,0.8,1.7l0.4,0.8l0.3,0.9l0.7,1.7
					c0.3,1.2,0.8,2.3,1,3.5l0.8,3.5c0.9,4.6,2.4,9.1,4.5,13.3c1,2.1,2.2,4.1,3.6,6.1c1.3,2,2.8,3.8,4.5,5.5c-2-1.4-3.7-3.1-5.3-4.9
					c-1.6-1.8-3-3.8-4.2-5.9c-2.5-4.2-4.2-8.8-5.3-13.5l-0.8-3.4c-0.3-1.1-0.7-2.2-1-3.3l-0.7-1.6l-0.3-0.8l-0.4-0.8
					c-0.3-0.5-0.5-1-0.8-1.5l-0.9-1.4c-1.3-1.9-2.8-3.5-4.6-4.9c-1.8-1.3-3.8-2.3-5.9-2.9c-2.1-0.6-4.4-0.7-6.5-0.5
					c-2.2,0.2-4.4,0.9-6.4,1.8c-2,0.9-3.7,2.3-5.3,3.9c-1.5,1.6-2.9,3.4-4.1,5.4c-0.6,1-1.3,2.1-2.2,3.1c-0.9,1-1.9,2-3.1,2.7
					c-1.2,0.7-2.4,1.2-3.6,1.6l-3.4,1.2c-0.5,0.2-1.1,0.4-1.6,0.6l-0.7,0.3c-0.2,0.1-0.4,0.2-0.7,0.3c-0.9,0.5-1.6,1.1-1.8,1.7
					c-0.1,0.3-0.2,0.6-0.2,0.9c0,0.1,0,0.3,0.1,0.4c0,0.1,0.1,0.1,0.1,0.2l0.2,0.3l1.7,3.1c0,0.1,0.1,0.1,0.1,0.2l0,0
					c1,2.5,2.4,4.7,4.3,6.2c1,0.7,2,1.3,3.2,1.8c1.2,0.4,2.5,0.7,3.8,1c2.7,0.5,5.6,0.9,8.5,1.8c1.5,0.5,2.9,1,4.3,2
					c0.7,0.5,1.4,1.2,1.9,2.1c0.2,0.5,0.4,1,0.5,1.6c0,0.3,0,0.6,0,0.9c0,0.2,0,0.3-0.1,0.5c0,0.1,0,0.1-0.1,0.2
					c0,0.1,0,0.1-0.1,0.3l0.1-0.4l-1.4,7.8c-0.5,2.6-1,5.2-1.6,7.8c-0.5,2.6-1.2,5.2-1.8,7.7C339.9,197.8,339.3,200.4,338.5,202.9z"
					/>
				<path class="st0" d="M348.7,134.3c0.5,2.3,1,4.6,1.7,6.8c0.7,2.2,1.6,4.3,2.9,5.9c0.7,0.8,1.4,1.4,2.3,1.7
					c0.9,0.3,1.9,0.3,2.9,0.1c2.1-0.4,4.1-1.6,6.2-2.7c-1.4,1.9-3.3,3.5-5.7,4.5c-1.2,0.4-2.7,0.6-4,0.2c-1.4-0.4-2.5-1.3-3.4-2.3
					c-0.8-1-1.4-2.2-1.8-3.3c-0.4-1.2-0.7-2.3-0.9-3.5C348.5,139,348.4,136.6,348.7,134.3z"/>
				<circle class="st0" cx="339.3" cy="140.8" r="2.6"/>
			</g>
		</g>
		<path class="st0" d="M196.7,151.5c-3.1-2.8-5.7-6.1-7.9-9.7c-1.1-1.8-2.1-3.6-3-5.5c-0.9-1.9-1.7-3.9-2.3-5.9
			c-2.7-8-3.1-16.9-1.2-25.2c0.5-2.1,1.1-4.1,1.8-6.1c0.7-2,1.5-3.9,2.4-5.9c1.7-3.9,3.8-7.6,6.4-11c2.6-3.4,5.7-6.5,9.6-8.6
			c1.9-1.1,4-1.8,6.1-2.2c2.1-0.4,4.3-0.4,6.4,0l-0.4,0.2l0,0c0.6-2.2,1.2-4.4,2-6.5c0.4-1.1,0.8-2.2,1.3-3.3
			c0.2-0.6,0.5-1.1,0.8-1.7c0.2-0.3,0.3-0.6,0.6-0.9c0.3-0.3,0.5-0.7,1.1-1.1c0.9-0.6,2.2-0.4,2.8,0.5c0,0.1,0.1,0.1,0.1,0.2
			l0.2,0.4l0,0c0.5,1.2,0.9,2.4,1.2,3.6c0.4,1.2,0.7,2.4,1,3.7c0.3,1.2,0.5,2.5,0.7,3.9c0.1,1.4,0.2,2.7-0.2,4.4l-3.7-2.1l9.7-10.8
			l0,0c0.8-0.9,2.2-1,3.1-0.2c0.4,0.3,0.6,0.7,0.7,1.2c0.2,0.8,0.3,1.5,0.4,2.3c0.1,0.8,0.2,1.5,0.2,2.3c0.1,1.5,0,3-0.2,4.6
			c-0.2,1.5-0.6,3.1-1.3,4.6c-0.7,1.5-1.7,3-3,4.2l0.7-1.9c0.1,0.8,0.2,1.6,0.4,2.5c0.2,0.8,0.4,1.6,0.6,2.4
			c0.3,0.8,0.5,1.5,0.9,2.2c0.3,0.6,0.7,1.2,1.1,1.5l0,0c0.5,0.4,0.7,0.9,0.8,1.5c0.1,1.1,0.1,2,0.1,3c0,1-0.1,1.9-0.1,2.9
			c-0.2,2-0.5,3.9-1.4,5.9l0.2-0.9c0.1,2.8,0.4,5.7,0.8,8.5c0.2,1.4,0.5,2.8,0.8,4.1c0.3,1.3,0.7,2.6,1.3,3.7
			c0.1,0.3,0.3,0.5,0.4,0.7l0.6,0.9c0.6,0.9,0.9,1.8,1.1,2.8c0.4,1.8,0.3,3.5,0,5.2c-0.2,1.6-0.6,3.1-1.1,4.6
			c-0.5,1.5-1,2.9-1.7,4.4c-0.1,0.3-0.3,0.6-0.6,0.8l0,0l0,0c-0.4,0.2-0.6,0.3-0.9,0.4c-0.3,0.1-0.5,0.2-0.8,0.3
			c-0.5,0.2-1.1,0.4-1.6,0.5c-1.1,0.3-2.2,0.4-3.3,0.4c-2.2,0-4.3-0.6-6-1.7c2,0.4,3.9,0.2,5.6-0.5c0.8-0.3,1.6-0.8,2.4-1.3
			c0.4-0.3,0.7-0.5,1-0.8c0.2-0.1,0.3-0.3,0.5-0.4c0.1-0.1,0.3-0.3,0.4-0.4l0,0l-0.6,0.8c1.1-2.4,2-5.2,2.4-7.8
			c0.2-1.3,0.2-2.6,0-3.6c-0.1-0.5-0.3-1-0.5-1.3l-0.6-0.9c-0.2-0.4-0.5-0.8-0.7-1.2c-0.7-1.6-1.2-3.1-1.6-4.6
			c-0.4-1.5-0.7-3-0.9-4.5c-0.5-3-0.7-6-0.9-9c0-0.3,0-0.6,0.1-0.9l0,0c0.6-1.4,0.9-3,1-4.7c0.1-0.8,0.1-1.7,0.1-2.5
			c0-0.8,0-1.7-0.1-2.5l0.8,1.5c-1.1-0.9-1.7-1.9-2.2-2.8c-0.5-1-0.9-1.9-1.2-2.9c-0.3-1-0.6-1.9-0.8-2.9c-0.2-1-0.4-1.9-0.5-2.9
			c-0.1-0.7,0.2-1.4,0.7-1.8l0,0c0.8-0.7,1.4-1.6,1.9-2.6c0.5-1,0.8-2.2,0.9-3.5c0.2-1.2,0.2-2.5,0.2-3.8c-0.1-1.3-0.2-2.6-0.5-3.8
			l3.8,1l-9.7,10.8l0,0c-0.8,0.9-2.2,1-3.1,0.2c-0.6-0.6-0.9-1.4-0.6-2.2c0.2-0.7,0.2-1.8,0.1-2.8c-0.1-1.1-0.3-2.2-0.6-3.3
			c-0.3-1.1-0.6-2.2-0.9-3.3c-0.3-1.1-0.7-2.2-1.1-3.3l0,0l3.1,1.1c0.1-0.1-0.1,0-0.2,0c-0.1,0.1-0.3,0.3-0.5,0.4
			c-0.3,0.3-0.7,0.7-1,1.1c-0.7,0.8-1.3,1.7-1.9,2.6c-1.3,1.8-2.4,3.7-3.6,5.7l0,0c0,0.1-0.2,0.2-0.3,0.2l-0.1,0c-2,0-4.1,0.2-6,0.8
			c-1.9,0.6-3.7,1.4-5.4,2.5c-3.3,2.2-6.1,5.2-8.4,8.4c-2.3,3.3-4.2,6.9-5.9,10.6c-0.8,1.9-1.6,3.8-2.3,5.7
			c-0.7,1.9-1.3,3.8-1.7,5.8c-0.2,1-0.5,2-0.6,3l-0.3,1.5l-0.2,1.5c-0.3,2-0.3,4-0.3,6c0.1,4,0.6,8.1,1.7,12c1,3.9,2.6,7.7,4.5,11.4
			C191.7,144.9,194,148.4,196.7,151.5z"/>
		<g>
			<g>
				<path class="st0" d="M263.8,104.3c1.5,5.8,3.5,11.4,6.2,16.6c1.4,2.6,2.9,5.1,4.7,7.3c0.9,1.1,1.9,2.2,2.9,3.2
					c1,1,2.1,1.9,3.3,2.7c1.1,0.8,2.4,1.5,3.6,2.1c1.3,0.5,2.6,1,3.9,1.3c2.6,0.6,5.3,0.4,7.9-0.5c2.6-0.8,5-2.3,7.2-4
					c1.1-0.9,2.2-1.8,3.2-2.8c1-1,2-2.1,2.8-3.1l-0.1,2.3c-1.5-2.4-2.7-4.8-3.9-7.3c-1.2-2.5-2.2-5-3.1-7.7
					c-1.7-5.2-2.9-10.8-2.2-16.7c0.3-2.9,1.2-5.8,2.8-8.4c1.6-2.6,3.8-4.7,6.4-6.3c0.6-0.4,1.3-0.7,1.9-1c0.6-0.4,1.3-0.6,2-0.9
					c0.7-0.2,1.3-0.6,2-0.7l2.1-0.6c0.7-0.2,1.4-0.3,2.1-0.5l2.1-0.4c1.4-0.2,2.8-0.3,4.2-0.4c1.2-0.1,2.2,0.7,2.3,1.9
					c0,0.1,0,0.3,0,0.4l0,0.1c0,0.2,0,0.4-0.1,0.5c0,0.2-0.1,0.3-0.1,0.5c-0.1,0.3-0.1,0.6-0.2,0.9c-0.1,0.6-0.4,1.1-0.6,1.7
					c-0.5,1.1-1,2.2-1.7,3.1c-1.4,2-3.3,3.5-5.5,4.6l-1.6,0.7c-0.6,0.2-1.1,0.3-1.7,0.5l-0.8,0.2c-0.3,0-0.6,0.1-0.8,0.1l-1.7,0.2
					c-1.1,0-2.2,0-3.3,0l-3.2-0.4l1.2-0.2l0,0c-0.3,0.1-0.4,0.1-0.5,0.2c-0.1,0-0.2,0-0.4,0.1c-0.2,0-0.4,0-0.6,0
					c-0.4,0-0.8-0.1-1.1-0.2c-0.3-0.1-0.6-0.2-0.9-0.4c-0.3-0.1-0.5-0.3-0.7-0.4c-0.8-0.6-1.4-1.3-2-2c-1-1.4-1.7-2.9-2.3-4.3
					c-0.6-1.5-1.1-2.9-1.6-4.4c-0.2-0.7-0.5-1.3-0.7-2c-0.1-0.3-0.3-0.6-0.4-1l-0.5-0.9c-1.4-2.5-3.8-4.2-6.5-5.3
					c-2.8-1-5.8-1.3-8.8-0.9c3-0.7,6.1-0.7,9.1,0c3,0.8,6,2.5,7.9,5.1l0.7,1c0.2,0.3,0.5,0.7,0.6,1c0.4,0.7,0.8,1.5,1.1,2.1
					c0.6,1.4,1.2,2.7,1.9,4c0.7,1.3,1.5,2.5,2.4,3.4c0.4,0.5,0.9,0.9,1.3,1.1c0.1,0,0.2,0.1,0.3,0.1c0.1,0,0.2,0.1,0.2,0
					c0.1,0,0.1,0,0.1,0c0,0,0,0-0.1,0c0,0,0,0-0.1,0c-0.1,0,0,0-0.2,0.1l0,0l1.2-0.2l2.8,0.3c0.9,0,1.9,0,2.8,0l1.4-0.2
					c0.2,0,0.5,0,0.7-0.1l0.6-0.2c0.4-0.1,0.9-0.2,1.3-0.4l1.2-0.5c1.5-0.8,2.8-1.8,3.8-3.2c0.5-0.7,0.9-1.4,1.2-2.2
					c0.1-0.4,0.3-0.8,0.4-1.2c0.1-0.4,0.2-0.9,0.2-1.1l2.3,2.4c-5.1,0.4-10.2,1.5-14.3,3.9c-2,1.2-3.7,2.9-4.9,4.8
					c-1.2,2-1.9,4.2-2.2,6.6c-0.3,2.4-0.2,4.9,0.2,7.4c0.4,2.5,1,5,1.8,7.4c1.6,4.9,3.8,9.7,6.3,14.1l0.1,0.1
					c0.4,0.7,0.3,1.6-0.2,2.2c-1,1.3-2.1,2.4-3.2,3.5c-1.1,1.1-2.3,2.1-3.6,3c-2.5,1.9-5.3,3.5-8.4,4.4c-3.1,1-6.5,1.2-9.7,0.4
					c-1.6-0.4-3.1-1-4.5-1.7c-1.4-0.7-2.8-1.5-4-2.5c-2.5-1.9-4.6-4.3-6.4-6.8c-1.8-2.5-3.2-5.2-4.4-8
					C265.9,116.2,264.4,110.3,263.8,104.3z"/>
				<path class="st0" d="M276.4,80.6c-1.5-2.1-3.2-4-5.2-5.6c-1.9-1.7-4-3.1-6.2-4.2c-1.1-0.6-2.3-1-3.4-1.5l-1.8-0.5
					c-0.6-0.2-1.2-0.3-1.8-0.4c-2.4-0.6-4.8-0.6-7.2-0.5l1.7-1.5v0c-0.2,1.1-0.2,2.5-0.1,3.8c0,1.3,0.2,2.6,0.4,3.8
					c0.5,2.5,1.4,4.9,3,6.9c1.6,2,3.8,3.5,6.3,4.3c2.5,0.8,5.2,1.1,7.9,1c-2.7,0.4-5.4,0.4-8.2-0.1c-2.7-0.6-5.3-2-7.3-4
					c-2-2.1-3.4-4.7-4.2-7.4c-0.4-1.4-0.7-2.8-0.9-4.2c-0.2-1.4-0.3-2.8-0.3-4.3l0,0l0-0.2c0.1-0.8,0.8-1.4,1.6-1.3
					c2.7,0.2,5.4,0.5,7.9,1.5c0.6,0.2,1.3,0.4,1.9,0.7l1.8,0.8c1.2,0.6,2.3,1.2,3.4,2c2.2,1.5,4.2,3.2,5.9,5.1
					C273.5,76.3,275.1,78.4,276.4,80.6z"/>
			</g>
		</g>
	</g>
	<path class="st0" d="M226.8,270.5c-2.7,1.5-5.4,3-8.4,3.9c-3,0.8-6.2,0.9-9.3,1c-6.2,0.1-12.6-1.2-18.3-4.1
		c-5.7-2.9-10.4-7.7-13.3-13.4c-2.9-5.7-4-12.2-3.8-18.5l0,0.2c-0.1-1.8-0.2-3.6,0-5.5c0.2-1.8,0.5-3.6,1-5.4
		c0.5-1.8,1.1-3.5,1.9-5.1c0.8-1.6,1.7-3.2,2.7-4.7c2-3,4.4-5.7,6.8-8.2c2.5-2.5,5-5,7.6-7.3c5.1-4.5,9.6-9.7,13-15.5
		c3.6-6.1,8-11.9,13.5-16.6c2.7-2.4,5.7-4.5,8.8-6.3c3.2-1.8,6.6-3.2,10.1-4.2c7.1-1.9,14.7-1.9,21.8,0c7.1,1.9,13.6,5.8,18.9,10.8
		c5.3,5,9.4,10.9,13.6,16.3c2.1,2.7,4.2,5.3,6.5,7.9c2.3,2.5,4.7,5,7.1,7.6c2.3,2.6,4.7,4.9,7.2,7.5c2.5,2.5,4.9,5.3,6.9,8.4
		c2,3.1,3.5,6.5,4.6,10c1,3.5,1.5,7.3,1.4,11c-0.2,7.4-2.7,14.5-6.3,20.7c-1.8,3.2-4.3,6.1-7.2,8.4c-2.9,2.3-6.2,4-9.7,5.2
		c-6.9,2.4-14.4,2.6-21.4,1.1c-3.5-0.7-6.9-1.7-10.2-2.9c-1.7-0.6-3.3-1.3-4.9-2.1c-1.6-0.8-3.1-1.6-4.6-2.3
		c-3.1-1.5-6.4-2.6-9.7-3.2c-3.4-0.6-6.9-0.6-10.3,0.1c3.3-1,6.9-1.4,10.4-1c3.5,0.4,7,1.4,10.2,2.6c1.6,0.6,3.3,1.3,4.9,2
		c1.6,0.7,3.1,1.3,4.8,1.8c3.2,1.1,6.6,1.9,9.9,2.5c6.6,1.2,13.6,0.7,19.8-1.6c6.2-2.3,11.6-6.6,14.7-12.3c3.2-5.9,5.3-12.4,5.4-19
		c0-3.3-0.4-6.5-1.4-9.6c-0.9-3.1-2.4-6.1-4.2-8.9c-3.5-5.5-9-9.8-13.7-15.1c-2.4-2.5-4.8-5-7.1-7.7c-2.4-2.6-4.7-5.4-6.8-8.2
		c-4.3-5.6-8.2-11.2-13-15.8c-4.8-4.5-10.7-7.9-17-9.7c-6.3-1.8-13.1-1.9-19.5-0.2c-6.4,1.6-12.3,5-17.4,9.4
		c-5.1,4.4-9.4,9.7-12.9,15.5c-3.7,6.1-8.6,11.6-14,16.1c-2.6,2.2-5.2,4.6-7.6,7c-2.5,2.4-4.7,4.9-6.6,7.7c-0.9,1.4-1.8,2.8-2.5,4.3
		c-0.7,1.5-1.3,3-1.8,4.6c-0.5,1.6-0.8,3.2-1,4.9c-0.2,1.6-0.2,3.3-0.1,5l0,0.1l0,0.1c-0.3,6,0.6,12,3.2,17.4c1.3,2.7,3,5.2,5,7.3
		c1,1.1,2.1,2.1,3.3,3c1.2,0.9,2.4,1.7,3.7,2.5c5.3,2.9,11.3,4.2,17.4,4.5c3.1,0.1,6.1,0.2,9.1-0.4
		C221.2,273.1,224,271.8,226.8,270.5z"/>
</g>
</svg>
