<svg id="Capa_1" enable-background="new 0 0 512 512" height="512" viewBox="0 0 512 512" width="512" xmlns="http://www.w3.org/2000/svg"><g><g><path d="m497 161h-482c-8.284 0-15-6.716-15-15v-80c0-8.284 6.716-15 15-15h482c8.284 0 15 6.716 15 15v80c0 8.284-6.716 15-15 15z" fill="#0a617d"/></g><g><path d="m497 51h-241v110h241c8.284 0 15-6.716 15-15v-80c0-8.284-6.716-15-15-15z" fill="#08475e"/></g><g><g><path d="m0 146v300c0 8.284 6.716 15 15 15h482c8.284 0 15-6.716 15-15v-300z" fill="#f4f4f6"/></g></g><path d="m256 461h241c8.284 0 15-6.716 15-15v-300h-256z" fill="#e7f1f9"/><g><g><path d="m148.5 391c-19.419 0-33.347-2.634-43.832-8.291-10.271-5.541-22.514-17.042-22.514-40.363 0-36.583 29.763-66.346 66.346-66.346s66.346 29.763 66.346 66.346c0 23.321-12.244 34.822-22.515 40.363-10.484 5.657-24.412 8.291-43.831 8.291z" fill="#c18678"/><path d="m78.5 303c-20.677 0-37.5-16.823-37.5-37.5s16.823-37.5 37.5-37.5 37.5 16.823 37.5 37.5-16.823 37.5-37.5 37.5z" fill="#a55c4f"/><path d="m148.5 276c-20.677 0-37.5-16.823-37.5-37.5s16.823-37.5 37.5-37.5 37.5 16.823 37.5 37.5-16.823 37.5-37.5 37.5z" fill="#a55c4f"/><path d="m181 265.5c0-20.677 16.823-37.5 37.5-37.5s37.5 16.823 37.5 37.5-16.823 37.5-37.5 37.5-37.5-16.823-37.5-37.5z" fill="#784033"/></g><g><path d="m192.332 382.709c10.271-5.541 22.514-17.042 22.514-40.363 0-36.583-29.763-66.346-66.346-66.346v115c19.419 0 33.347-2.634 43.832-8.291z" fill="#a55c4f"/><path d="m186 238.5c0-20.677-16.823-37.5-37.5-37.5v75c20.677 0 37.5-16.823 37.5-37.5z" fill="#784033"/></g></g><g><path d="m446 281h-120c-8.284 0-15-6.716-15-15v-45c0-8.284 6.716-15 15-15h120c8.284 0 15 6.716 15 15v45c0 8.284-6.716 15-15 15z" fill="#ffa07a"/></g><g><path d="m446 341h-120c-8.284 0-15-6.716-15-15s6.716-15 15-15h120c8.284 0 15 6.716 15 15s-6.716 15-15 15z" fill="#08475e"/></g><g><path d="m446 401h-120c-8.284 0-15-6.716-15-15s6.716-15 15-15h120c8.284 0 15 6.716 15 15s-6.716 15-15 15z" fill="#08475e"/></g></g></svg>